<svg width="276" height="276" viewBox="0 0 276 276" fill="none" xmlns="http://www.w3.org/2000/svg">
<circle cx="138" cy="137" r="134" fill="#01423E"/>
<path d="M96.963 55.176C98.4563 55.176 99.907 55.5387 101.315 56.264C102.723 56.9467 103.854 57.9067 104.707 59.144C105.176 59.016 105.71 58.9093 106.307 58.824C106.947 58.696 107.566 58.632 108.163 58.632C109.187 58.5893 110.168 58.632 111.107 58.76C112.088 58.888 112.942 59.144 113.667 59.528C114.392 59.8693 114.926 60.36 115.267 61C115.651 61.64 115.758 62.4507 115.587 63.432C115.416 64.4133 114.904 65.288 114.051 66.056C113.198 66.7813 112.174 67.4 110.979 67.912C109.827 68.3813 108.568 68.744 107.203 69C105.838 69.2133 104.536 69.32 103.299 69.32C101.507 69.32 99.7363 69.1067 97.987 68.68C96.2377 68.2533 94.787 67.6133 93.635 66.76C92.4403 67.8267 91.331 69 90.307 70.28C89.283 71.5173 88.387 72.776 87.619 74.056C86.8937 75.2933 86.3177 76.5307 85.891 77.768C85.507 78.9627 85.315 80.072 85.315 81.096C85.315 82.9733 85.827 84.296 86.851 85.064C87.875 85.8747 89.1977 86.28 90.819 86.28C92.739 86.28 94.4457 85.9387 95.939 85.256C97.475 84.5733 98.8617 83.8267 100.099 83.016C100.824 82.504 101.571 81.928 102.339 81.288C103.15 80.6053 103.704 80.0933 104.003 79.752C104.088 79.6667 104.195 79.56 104.323 79.432C104.494 79.304 104.622 79.2827 104.707 79.368C104.792 79.4533 104.792 79.5813 104.707 79.752C104.664 79.88 104.6 79.9867 104.515 80.072C104.344 80.2427 104.088 80.4773 103.747 80.776C103.448 81.0747 103.107 81.3947 102.723 81.736C102.339 82.0773 101.934 82.4187 101.507 82.76C101.08 83.0587 100.696 83.3147 100.355 83.528C99.0323 84.4667 97.5603 85.2773 95.939 85.96C94.3603 86.6853 92.611 87.0907 90.691 87.176C88.0457 87.2613 85.8697 86.792 84.163 85.768C82.4563 84.744 81.5603 83.0587 81.475 80.712C81.4323 79.304 81.7097 77.896 82.307 76.488C82.9043 75.0373 83.6937 73.6293 84.675 72.264C85.6563 70.8987 86.787 69.6187 88.067 68.424C89.347 67.1867 90.6483 66.0987 91.971 65.16C91.5017 64.5627 91.1177 63.9227 90.819 63.24C90.5203 62.5573 90.371 61.8533 90.371 61.128C90.371 60.232 90.5417 59.4213 90.883 58.696C91.267 57.9707 91.7577 57.352 92.355 56.84C92.9523 56.2853 93.635 55.88 94.403 55.624C95.2137 55.3253 96.0457 55.176 96.899 55.176H96.963ZM103.491 68.68C104.643 68.68 105.752 68.552 106.819 68.296C107.928 68.04 108.91 67.6773 109.763 67.208C110.659 66.696 111.406 66.12 112.003 65.48C112.643 64.7973 113.048 64.072 113.219 63.304C113.56 61.8107 113.262 60.7227 112.323 60.04C111.427 59.3573 110.126 59.0373 108.419 59.08C107.907 59.1227 107.31 59.208 106.627 59.336C105.987 59.464 105.475 59.6133 105.091 59.784C105.347 60.2533 105.56 60.808 105.731 61.448C105.902 62.0453 106.03 62.6427 106.115 63.24C106.158 63.752 106.158 64.1787 106.115 64.52C106.072 64.8187 106.008 64.9253 105.923 64.84C105.838 64.7973 105.795 64.6907 105.795 64.52C105.838 64.3493 105.795 64.0293 105.667 63.56C105.539 62.92 105.326 62.28 105.027 61.64C104.728 60.9573 104.43 60.424 104.131 60.04C102.424 60.68 100.675 61.576 98.883 62.728C97.091 63.88 95.5123 65.0747 94.147 66.312C95.2563 67.1653 96.643 67.784 98.307 68.168C99.971 68.5093 101.678 68.68 103.427 68.68H103.491ZM96.387 56.008C95.0217 56.008 93.8057 56.4773 92.739 57.416C91.715 58.312 91.203 59.5707 91.203 61.192C91.203 61.7893 91.331 62.408 91.587 63.048C91.8857 63.6453 92.2483 64.2213 92.675 64.776C94.4243 63.624 96.259 62.5787 98.179 61.64C100.099 60.7013 101.955 59.976 103.747 59.464C102.766 58.3547 101.614 57.5013 100.291 56.904C99.011 56.3067 97.731 56.008 96.451 56.008H96.387ZM108.464 84.616C108.89 84.616 109.616 84.4667 110.64 84.168C111.664 83.8693 112.88 83.2293 114.288 82.248C114.885 81.8213 115.525 81.352 116.208 80.84C116.933 80.2853 117.594 79.7307 118.192 79.176C118.533 78.8773 118.768 78.792 118.896 78.92C119.024 79.0907 118.853 79.368 118.384 79.752C117.957 80.136 117.317 80.6693 116.464 81.352C115.653 82.0347 114.949 82.568 114.352 82.952C111.706 84.7013 109.296 85.576 107.12 85.576C104.773 85.576 103.642 84.7227 103.727 83.016C103.77 81.8213 104.41 80.4987 105.648 79.048L105.584 78.984C105.498 79.0693 105.306 79.24 105.008 79.496C104.752 79.752 104.517 79.9653 104.303 80.136C104.005 80.392 103.791 80.456 103.663 80.328C103.578 80.2427 103.599 80.136 103.727 80.008C103.813 79.88 103.919 79.752 104.047 79.624C104.474 79.24 104.858 78.92 105.2 78.664C105.541 78.3653 105.946 78.0453 106.416 77.704C106.757 77.448 107.205 77.1493 107.76 76.808C108.357 76.4667 108.954 76.1253 109.552 75.784C110.49 75.3147 111.429 74.9093 112.368 74.568C113.306 74.184 114.202 73.992 115.056 73.992H115.12C115.845 73.992 116.336 74.184 116.592 74.568C116.89 74.9093 117.018 75.2933 116.976 75.72C116.89 76.5733 116.421 77.32 115.568 77.96C114.757 78.6 113.861 79.1547 112.88 79.624C111.941 80.0933 110.96 80.4987 109.936 80.84C108.954 81.1813 108.101 81.4587 107.376 81.672C107.12 82.184 106.992 82.6747 106.992 83.144C106.992 84.1253 107.482 84.616 108.464 84.616ZM107.76 80.968C108.4 80.7973 109.104 80.5627 109.872 80.264C110.682 79.9227 111.429 79.5173 112.112 79.048C112.922 78.4933 113.541 77.9173 113.968 77.32C114.437 76.7227 114.693 76.1893 114.736 75.72C114.821 75.1227 114.565 74.824 113.968 74.824C113.413 74.824 112.474 75.4427 111.152 76.68C110.64 77.1493 110.042 77.832 109.36 78.728C108.677 79.5813 108.144 80.328 107.76 80.968ZM124.714 73.928C123.221 75.2933 121.898 76.488 120.746 77.512C119.637 78.536 118.826 79.2827 118.314 79.752C117.759 80.264 117.418 80.456 117.29 80.328C117.205 80.2427 117.247 80.0933 117.418 79.88C117.589 79.6667 117.845 79.4107 118.186 79.112C118.911 78.472 119.658 77.7893 120.426 77.064C121.237 76.3387 121.941 75.6773 122.538 75.08C123.135 74.5253 123.989 73.7573 125.098 72.776C126.207 71.752 127.295 70.7493 128.362 69.768C128.703 69.4267 129.087 69.128 129.514 68.872C129.941 68.616 130.389 68.488 130.858 68.488C131.583 68.488 131.882 68.5947 131.754 68.808C131.669 69.0213 131.349 69.448 130.794 70.088C129.855 71.1973 128.746 72.5413 127.466 74.12C126.229 75.656 124.885 77.3627 123.434 79.24C122.026 81.0747 120.533 83.016 118.954 85.064C117.418 87.112 115.882 89.1813 114.346 91.272C112.938 93.192 111.765 94.8133 110.826 96.136C109.845 97.4587 108.949 98.696 108.138 99.848C107.327 101 106.517 102.173 105.706 103.368C104.895 104.605 103.957 106.056 102.89 107.72C102.634 108.147 102.485 108.445 102.442 108.616C102.399 108.787 102.421 108.915 102.506 109C102.677 109.171 102.954 109.043 103.338 108.616C103.551 108.36 103.85 107.976 104.234 107.464C104.575 106.995 104.981 106.44 105.45 105.8C105.919 105.16 106.41 104.477 106.922 103.752C107.391 103.027 107.861 102.344 108.33 101.704C109.013 100.723 110.037 99.336 111.402 97.544C112.725 95.752 114.154 93.832 115.69 91.784C117.013 90.0347 118.314 88.328 119.594 86.664C120.917 85 122.197 83.4427 123.434 81.992C124.287 81.0107 125.226 80.0293 126.25 79.048C127.274 78.024 128.213 77.192 129.066 76.552C129.919 75.912 130.837 75.336 131.818 74.824C132.799 74.312 133.717 74.056 134.57 74.056C135.978 74.056 136.618 74.6107 136.49 75.72C136.405 76.2747 136.085 76.8933 135.53 77.576C135.018 78.216 134.463 78.8773 133.866 79.56C133.354 80.1573 132.906 80.6907 132.522 81.16C132.138 81.5867 131.839 81.9707 131.626 82.312C131.157 83.0373 131.093 83.528 131.434 83.784C131.775 84.04 132.351 83.976 133.162 83.592C133.546 83.3787 133.973 83.1227 134.442 82.824C134.954 82.5253 135.509 82.1413 136.106 81.672C136.703 81.2027 137.237 80.776 137.706 80.392C138.175 79.9653 138.623 79.56 139.05 79.176C139.221 79.0053 139.391 78.856 139.562 78.728C139.775 78.6 139.925 78.5787 140.01 78.664C140.095 78.7493 140.053 78.8987 139.882 79.112C139.711 79.2827 139.583 79.4107 139.498 79.496C139.327 79.6667 139.071 79.9013 138.73 80.2C138.431 80.456 138.09 80.7547 137.706 81.096C137.365 81.3947 137.002 81.6933 136.618 81.992C136.234 82.2907 135.893 82.568 135.594 82.824C134.911 83.336 134.058 83.8907 133.034 84.488C132.01 85.0853 130.943 85.384 129.834 85.384C129.023 85.384 128.447 85.192 128.106 84.808C127.807 84.424 127.701 83.9973 127.786 83.528C127.871 82.8453 128.213 82.12 128.81 81.352C129.407 80.584 130.005 79.88 130.602 79.24C131.114 78.6427 131.647 78.0453 132.202 77.448C132.757 76.8507 133.141 76.3813 133.354 76.04C133.61 75.6133 133.61 75.336 133.354 75.208C133.226 75.1227 133.013 75.1227 132.714 75.208C132.458 75.2933 132.202 75.4 131.946 75.528C130.922 76.04 129.855 76.7227 128.746 77.576C127.679 78.3867 126.527 79.4747 125.29 80.84C124.778 81.3947 124.159 82.0987 123.434 82.952C122.751 83.8053 121.983 84.744 121.13 85.768C120.319 86.792 119.466 87.8587 118.57 88.968C117.717 90.12 116.863 91.272 116.01 92.424C114.602 94.344 113.215 96.2213 111.85 98.056C110.442 99.9333 109.247 101.576 108.266 102.984C107.754 103.752 107.242 104.499 106.73 105.224C106.175 105.992 105.663 106.696 105.194 107.336C104.682 108.019 104.234 108.595 103.85 109.064C103.423 109.576 103.061 109.96 102.762 110.216C102.506 110.429 102.229 110.6 101.93 110.728C101.589 110.899 101.247 110.941 100.906 110.856C100.181 110.728 99.818 110.28 99.818 109.512C99.818 108.787 100.074 107.955 100.586 107.016C101.055 106.077 101.61 105.117 102.25 104.136C102.847 103.24 103.445 102.365 104.042 101.512C104.597 100.659 105.215 99.7413 105.898 98.76C106.581 97.8213 107.349 96.7547 108.202 95.56C109.055 94.408 110.058 93.064 111.21 91.528C111.978 90.4613 112.959 89.1387 114.154 87.56C115.349 85.9813 116.607 84.36 117.93 82.696C119.21 80.9893 120.447 79.368 121.642 77.832C122.879 76.2533 123.903 74.952 124.714 73.928ZM153.013 78.6C152.8 79.24 151.776 80.264 149.941 81.672C148.49 82.824 147.189 83.7413 146.037 84.424C144.928 85.064 143.84 85.384 142.773 85.384C141.493 85.384 140.853 84.936 140.853 84.04C140.853 83.016 141.792 81.352 143.669 79.048C145.589 76.744 146.549 75.5707 146.549 75.528C146.549 75.2293 146.4 75.08 146.101 75.08C145.376 75.08 144.01 75.8267 142.005 77.32C140.042 78.7707 139.018 79.496 138.933 79.496C138.89 79.496 138.826 79.4533 138.741 79.368C138.741 79.1973 138.762 79.0907 138.805 79.048C142.73 75.6773 145.589 73.992 147.381 73.992C148.704 73.992 149.365 74.4613 149.365 75.4C149.365 76.1253 148.533 77.512 146.869 79.56C145.205 81.608 144.373 82.9307 144.373 83.528L144.437 83.784C144.608 83.8693 144.778 83.912 144.949 83.912C145.717 83.912 147.04 83.1867 148.917 81.736C150.154 80.6693 151.392 79.624 152.629 78.6H152.821H153.013ZM156.026 84.616C156.453 84.616 157.178 84.4667 158.202 84.168C159.226 83.8693 160.442 83.2293 161.85 82.248C162.447 81.8213 163.087 81.352 163.77 80.84C164.495 80.2853 165.157 79.7307 165.754 79.176C166.095 78.8773 166.33 78.792 166.458 78.92C166.586 79.0907 166.415 79.368 165.946 79.752C165.519 80.136 164.879 80.6693 164.026 81.352C163.215 82.0347 162.511 82.568 161.914 82.952C159.269 84.7013 156.858 85.576 154.682 85.576C152.335 85.576 151.205 84.7227 151.29 83.016C151.333 81.8213 151.973 80.4987 153.21 79.048L153.146 78.984C153.061 79.0693 152.869 79.24 152.57 79.496C152.314 79.752 152.079 79.9653 151.866 80.136C151.567 80.392 151.354 80.456 151.226 80.328C151.141 80.2427 151.162 80.136 151.29 80.008C151.375 79.88 151.482 79.752 151.61 79.624C152.037 79.24 152.421 78.92 152.762 78.664C153.103 78.3653 153.509 78.0453 153.978 77.704C154.319 77.448 154.767 77.1493 155.322 76.808C155.919 76.4667 156.517 76.1253 157.114 75.784C158.053 75.3147 158.991 74.9093 159.93 74.568C160.869 74.184 161.765 73.992 162.618 73.992H162.682C163.407 73.992 163.898 74.184 164.154 74.568C164.453 74.9093 164.581 75.2933 164.538 75.72C164.453 76.5733 163.983 77.32 163.13 77.96C162.319 78.6 161.423 79.1547 160.442 79.624C159.503 80.0933 158.522 80.4987 157.498 80.84C156.517 81.1813 155.663 81.4587 154.938 81.672C154.682 82.184 154.554 82.6747 154.554 83.144C154.554 84.1253 155.045 84.616 156.026 84.616ZM155.322 80.968C155.962 80.7973 156.666 80.5627 157.434 80.264C158.245 79.9227 158.991 79.5173 159.674 79.048C160.485 78.4933 161.103 77.9173 161.53 77.32C161.999 76.7227 162.255 76.1893 162.298 75.72C162.383 75.1227 162.127 74.824 161.53 74.824C160.975 74.824 160.037 75.4427 158.714 76.68C158.202 77.1493 157.605 77.832 156.922 78.728C156.239 79.5813 155.706 80.328 155.322 80.968ZM184.309 67.976C184.223 68.7013 183.477 69.4693 182.069 70.28C180.661 71.048 179.551 71.432 178.741 71.432C178.314 71.432 177.845 71.304 177.333 71.048C176.863 70.7493 176.629 70.408 176.629 70.024V68.424C176.842 67.9547 177.141 67.72 177.525 67.72C178.207 67.72 178.549 67.9973 178.549 68.552C178.549 69.1493 178.165 69.6613 177.397 70.088C177.61 70.6 178.079 70.856 178.805 70.856C179.615 70.856 180.703 70.3653 182.069 69.384C183.477 68.4027 184.181 67.912 184.181 67.912C184.223 67.912 184.266 67.9333 184.309 67.976ZM187.125 78.664C187.039 79.304 185.589 80.6907 182.773 82.824C180.511 84.5307 178.677 85.384 177.269 85.384C175.946 85.384 175.285 84.872 175.285 83.848C175.285 82.568 176.458 80.7547 178.805 78.408L178.677 78.28C172.959 83.016 169.162 85.384 167.285 85.384C165.877 85.384 165.172 84.872 165.172 83.848C165.172 82.184 167.093 79.5173 170.933 75.848V75.784C170.25 76.2533 169.226 77.0213 167.861 78.088C167.349 78.5573 166.581 79.2187 165.556 80.072C165.3 80.2427 165.087 80.328 164.916 80.328C164.874 80.2853 164.852 80.2213 164.852 80.136C164.852 79.5813 166.111 78.4507 168.629 76.744C171.146 75.0373 173.002 74.184 174.197 74.184C174.666 74.184 174.943 74.248 175.029 74.376C174.986 74.4613 173.813 75.976 171.509 78.92C169.589 81.352 168.629 82.8667 168.629 83.464C168.671 83.5067 168.735 83.592 168.821 83.72C168.906 83.848 169.034 83.912 169.205 83.912C170.271 83.912 174.538 80.8613 182.005 74.76C182.559 74.2907 183.178 74.056 183.861 74.056C184.757 74.056 185.205 74.1627 185.205 74.376C185.205 74.632 184.117 76.0187 181.941 78.536C179.807 81.0533 178.741 82.6533 178.741 83.336C178.741 83.5067 178.783 83.656 178.869 83.784C178.954 83.8693 179.082 83.912 179.253 83.912C180.703 83.912 183.05 82.2907 186.293 79.048L187.125 78.664ZM155.915 129.864C156.854 129.864 157.558 130.12 158.027 130.632C158.497 131.101 158.646 131.72 158.475 132.488C158.347 133.085 158.049 133.619 157.579 134.088C157.11 134.557 156.598 134.728 156.043 134.6C155.574 134.515 155.318 134.28 155.275 133.896C155.275 133.469 155.318 133.043 155.403 132.616C155.489 132.275 155.446 131.976 155.275 131.72C155.147 131.464 154.891 131.315 154.507 131.272C153.825 131.187 152.95 131.485 151.883 132.168C150.817 132.808 149.345 133.939 147.467 135.56C146.23 136.669 144.95 137.885 143.627 139.208C142.305 140.531 141.003 141.768 139.723 142.92C140.107 143.475 140.491 144.072 140.875 144.712C141.259 145.352 141.579 146.056 141.835 146.824C142.134 147.592 142.326 148.403 142.411 149.256C142.539 150.152 142.497 151.091 142.283 152.072C142.027 153.224 141.558 154.291 140.875 155.272C140.193 156.296 139.382 157.149 138.443 157.832C137.505 158.557 136.459 159.112 135.307 159.496C134.155 159.923 132.982 160.136 131.787 160.136C130.635 160.136 129.739 159.923 129.099 159.496C128.502 159.069 128.118 158.685 127.947 158.344C127.649 157.747 127.606 157.384 127.819 157.256C127.905 157.256 127.947 157.32 127.947 157.448C127.99 157.619 128.118 157.832 128.331 158.088C128.587 158.429 128.971 158.728 129.483 158.984C130.038 159.24 130.806 159.368 131.787 159.368C133.494 159.368 135.009 158.835 136.331 157.768C137.697 156.701 138.635 155.315 139.147 153.608C139.617 152.029 139.702 150.451 139.403 148.872C139.147 147.293 138.678 145.821 137.995 144.456C137.27 145.053 136.481 145.651 135.627 146.248C134.817 146.845 133.985 147.379 133.131 147.848C132.278 148.275 131.425 148.637 130.571 148.936C129.718 149.192 128.886 149.32 128.075 149.32C127.35 149.32 126.731 149.107 126.219 148.68C125.707 148.211 125.558 147.485 125.771 146.504C125.985 145.437 126.603 144.477 127.627 143.624C128.651 142.728 129.846 141.853 131.211 141C131.937 140.573 132.619 140.189 133.259 139.848C133.942 139.507 134.625 139.144 135.307 138.76C135.137 138.163 135.009 137.523 134.923 136.84C134.881 136.157 134.923 135.517 135.051 134.92C135.179 134.365 135.371 133.811 135.627 133.256C135.926 132.701 136.267 132.211 136.651 131.784C137.078 131.315 137.547 130.952 138.059 130.696C138.614 130.397 139.211 130.248 139.851 130.248C140.491 130.248 140.982 130.525 141.323 131.08C141.707 131.635 141.729 132.403 141.387 133.384C141.003 134.365 140.427 135.261 139.659 136.072C138.891 136.84 137.995 137.587 136.971 138.312C137.227 139.037 137.569 139.72 137.995 140.36C138.422 140.957 138.87 141.619 139.339 142.344C140.662 141.107 141.963 139.827 143.243 138.504C144.523 137.181 145.782 135.965 147.019 134.856C148.641 133.405 150.177 132.211 151.627 131.272C153.121 130.333 154.55 129.864 155.915 129.864ZM139.723 131.272C139.041 131.272 138.401 131.635 137.803 132.36C137.249 133.085 136.865 133.917 136.651 134.856C136.481 135.88 136.545 136.861 136.843 137.8C137.697 137.203 138.465 136.541 139.147 135.816C139.83 135.048 140.342 134.216 140.683 133.32C140.897 132.723 140.897 132.232 140.683 131.848C140.513 131.464 140.193 131.272 139.723 131.272ZM130.251 147.592C131.062 147.592 132.15 147.251 133.515 146.568C134.881 145.843 136.246 144.925 137.611 143.816C137.185 143.091 136.779 142.344 136.395 141.576C136.054 140.808 135.755 140.04 135.499 139.272C134.774 139.784 134.091 140.253 133.451 140.68C132.854 141.064 132.278 141.491 131.723 141.96C130.017 143.368 129.035 144.691 128.779 145.928C128.651 146.525 128.758 146.952 129.099 147.208C129.441 147.464 129.825 147.592 130.251 147.592ZM57.6813 196.104C57.6813 195.507 57.8093 194.888 58.0653 194.248C58.3213 193.608 58.6413 193.011 59.0253 192.456C58.2146 191.859 57.5533 191.155 57.0413 190.344C56.5293 189.491 56.2733 188.595 56.2733 187.656C56.2733 186.376 56.7213 185.352 57.6173 184.584C58.5559 183.816 59.7079 183.389 61.0733 183.304C62.3106 183.219 63.6546 183.475 65.1053 184.072C66.5986 184.669 67.8573 185.587 68.8813 186.824C69.6919 186.696 70.4813 186.589 71.2493 186.504C72.0599 186.419 72.8493 186.397 73.6173 186.44C75.7933 186.525 77.4359 186.973 78.5452 187.784C79.6546 188.552 80.2093 189.448 80.2093 190.472C80.2093 191.197 79.9533 191.88 79.4412 192.52C78.9293 193.117 78.2253 193.651 77.3293 194.12C76.4333 194.589 75.4093 194.973 74.2573 195.272C73.1053 195.528 71.8893 195.656 70.6093 195.656C68.9453 195.656 67.3453 195.528 65.8093 195.272C64.2733 194.973 62.8866 194.525 61.6493 193.928C61.4786 194.141 61.2866 194.419 61.0733 194.76C60.9026 195.101 60.7746 195.443 60.6893 195.784C60.4333 196.509 60.3693 197.192 60.4973 197.832C60.8386 197.747 61.3293 197.683 61.9693 197.64C62.6093 197.597 63.1639 197.597 63.6333 197.64C64.5719 197.683 65.3826 197.832 66.0653 198.088C66.7906 198.301 67.1319 198.685 67.0893 199.24C67.0893 199.709 66.7053 200.029 65.9373 200.2C65.1693 200.371 64.3799 200.456 63.5693 200.456C62.5879 200.456 61.5853 200.307 60.5613 200.008C59.5799 199.709 58.8759 199.283 58.4493 198.728C57.5959 199.069 56.6359 199.581 55.5693 200.264C54.5026 200.947 53.5213 201.715 52.6253 202.568C51.6013 203.549 50.7266 204.659 50.0013 205.896C49.3186 207.133 48.9346 208.371 48.8493 209.608C48.7639 211.101 49.2119 212.253 50.1933 213.064C51.2173 213.875 52.5186 214.28 54.0973 214.28C56.0173 214.28 57.7239 213.939 59.2173 213.256C60.7533 212.573 62.1613 211.827 63.4413 211.016C64.1666 210.504 64.9133 209.928 65.6813 209.288C66.4919 208.605 67.0466 208.093 67.3453 207.752C67.4306 207.667 67.5373 207.56 67.6653 207.432C67.7933 207.304 67.9213 207.283 68.0493 207.368C68.1346 207.453 68.1346 207.581 68.0493 207.752C68.0066 207.88 67.9213 207.987 67.7933 208.072C67.6226 208.243 67.3666 208.477 67.0253 208.776C66.7266 209.075 66.3853 209.395 66.0013 209.736C65.6173 210.077 65.2119 210.419 64.7853 210.76C64.4013 211.059 64.0386 211.315 63.6973 211.528C62.3746 212.467 60.9026 213.277 59.2812 213.96C57.7026 214.685 55.9533 215.091 54.0333 215.176C51.2599 215.261 49.0413 214.835 47.3773 213.896C45.7559 213 44.9453 211.528 44.9453 209.48C44.9453 208.328 45.2439 207.176 45.8413 206.024C46.4813 204.872 47.3773 203.805 48.5293 202.824C49.6813 201.8 51.0679 200.904 52.6892 200.136C54.3533 199.325 56.1879 198.685 58.1933 198.216C57.8519 197.661 57.6813 196.979 57.6813 196.168V196.104ZM70.5453 195.016C71.5693 195.016 72.5719 194.909 73.5533 194.696C74.5346 194.483 75.3879 194.184 76.1133 193.8C76.8813 193.416 77.4999 192.947 77.9693 192.392C78.4386 191.837 78.6733 191.197 78.6733 190.472C78.7586 189.704 78.4386 188.957 77.7133 188.232C76.9879 187.464 75.6866 187.037 73.8093 186.952C72.4013 186.952 70.9506 187.208 69.4573 187.72C69.8839 188.573 70.1613 189.512 70.2893 190.536C70.3746 191.091 70.3959 191.517 70.3533 191.816C70.3106 192.115 70.2466 192.243 70.1613 192.2C70.0759 192.157 70.0333 192.072 70.0333 191.944C70.0759 191.773 70.0119 191.432 69.8413 190.92C69.7133 190.408 69.5213 189.917 69.2653 189.448C69.0093 188.979 68.7319 188.531 68.4333 188.104C67.8359 188.403 67.0893 188.851 66.1933 189.448C65.2973 190.045 64.4866 190.685 63.7613 191.368C63.1213 191.965 62.5239 192.627 61.9693 193.352C63.1213 193.949 64.4439 194.376 65.9373 194.632C67.4306 194.888 68.9453 195.016 70.4813 195.016H70.5453ZM67.6653 187.08C66.8119 186.099 65.7666 185.309 64.5293 184.712C63.3346 184.072 62.1399 183.795 60.9453 183.88C59.8359 183.965 58.8973 184.328 58.1293 184.968C57.3613 185.565 56.9773 186.44 56.9773 187.592C56.9773 188.403 57.1906 189.171 57.6173 189.896C58.0866 190.579 58.7053 191.24 59.4733 191.88C59.8573 191.368 60.2413 190.941 60.6253 190.6C61.5213 189.789 62.5879 189.085 63.8253 188.488C65.1053 187.891 66.3639 187.421 67.6013 187.08H67.6653ZM60.6893 198.344C60.8173 198.771 61.1799 199.112 61.7773 199.368C62.3746 199.624 62.9933 199.773 63.6333 199.816C64.2306 199.859 64.7426 199.816 65.1693 199.688C65.6386 199.56 65.8946 199.347 65.9373 199.048C65.9373 198.749 65.6599 198.536 65.1053 198.408C64.5933 198.28 64.1026 198.195 63.6333 198.152C63.2919 198.152 62.8226 198.152 62.2253 198.152C61.6279 198.152 61.1159 198.195 60.6893 198.28V198.344ZM88.8313 206.728C88.8313 206.941 88.1699 207.645 86.8472 208.84C85.7806 209.779 84.9699 210.461 84.4153 210.888C82.1966 212.552 80.3619 213.384 78.9113 213.384C77.9726 213.384 77.3326 213.043 76.9913 212.36C76.8206 211.933 76.7353 211.187 76.7353 210.12C76.7353 208.541 76.3939 207.88 75.7113 208.136C76.1379 207.752 76.7779 207.56 77.6313 207.56C78.7833 207.56 79.4873 208.285 79.7433 209.736C80.0419 211.144 80.4473 211.848 80.9593 211.848C81.8979 211.848 83.3699 210.995 85.3753 209.288C87.4233 207.581 88.5753 206.707 88.8313 206.664V206.728ZM86.1433 203.848C86.1433 205.128 85.4819 205.768 84.1593 205.768C83.1779 205.768 82.6873 205.555 82.6873 205.128C82.6873 205.043 82.7513 204.851 82.8793 204.552C83.0499 204.211 83.1353 203.955 83.1353 203.784C83.1353 203.187 82.8153 202.888 82.1753 202.888C80.5966 202.888 77.9086 204.616 74.1113 208.072C70.3566 211.528 68.0312 213.256 67.1352 213.256C66.6232 213.256 66.2819 213.192 66.1112 213.064C66.1112 213.021 66.1112 212.936 66.1112 212.808C66.1112 211.699 67.6259 209.267 70.6553 205.512V205.448C69.0766 207.027 68.1166 207.816 67.7752 207.816C67.6899 207.816 67.6472 207.795 67.6472 207.752C67.7326 207.325 68.7993 206.259 70.8473 204.552C72.9379 202.845 74.2393 201.992 74.7513 201.992C75.5619 201.992 75.9673 202.248 75.9673 202.76V202.888C74.8579 204.467 73.1513 206.813 70.8473 209.928L70.9753 209.992C73.7913 207.475 75.7113 205.832 76.7353 205.064C79.4233 203.059 81.6846 202.056 83.5193 202.056C85.2686 202.056 86.1433 202.653 86.1433 203.848ZM100.449 204.488C101.217 203.677 101.878 203.08 102.433 202.696C103.03 202.269 103.585 202.056 104.097 202.056C104.779 202.013 105.163 202.077 105.249 202.248C105.377 202.419 105.27 202.696 104.929 203.08C104.502 203.549 103.969 204.168 103.329 204.936C102.689 205.661 102.027 206.451 101.345 207.304C100.918 207.816 100.513 208.349 100.129 208.904C99.7448 209.416 99.4034 209.928 99.1048 210.44C98.6781 211.208 98.6141 211.699 98.9128 211.912C99.0834 212.04 99.2968 212.061 99.5528 211.976C99.8514 211.891 100.129 211.784 100.385 211.656C100.726 211.485 101.153 211.229 101.665 210.888C102.219 210.504 102.753 210.099 103.265 209.672C103.947 209.117 104.545 208.627 105.057 208.2C105.569 207.773 105.995 207.389 106.337 207.048C106.55 206.877 106.721 206.749 106.849 206.664C107.019 206.536 107.147 206.515 107.233 206.6C107.361 206.728 107.083 207.112 106.401 207.752C105.974 208.136 105.419 208.627 104.737 209.224C104.054 209.821 103.414 210.355 102.817 210.824C102.177 211.336 101.366 211.891 100.385 212.488C99.4034 213.085 98.3794 213.384 97.3128 213.384C96.7154 213.384 96.2674 213.256 95.9688 213C95.6701 212.744 95.4994 212.424 95.4568 212.04C95.4141 211.699 95.4781 211.315 95.6488 210.888C95.8194 210.461 96.0541 210.077 96.3528 209.736L96.2888 209.672C95.8621 210.056 95.3714 210.461 94.8168 210.888C94.2621 211.272 93.6648 211.656 93.0248 212.04C92.4274 212.381 91.7874 212.68 91.1048 212.936C90.4648 213.192 89.8461 213.341 89.2488 213.384C88.5234 213.427 87.8834 213.277 87.3287 212.936C86.7314 212.552 86.4967 211.848 86.6247 210.824C86.7101 210.355 86.8807 209.864 87.1367 209.352C87.3927 208.797 87.8194 208.179 88.4168 207.496L88.3528 207.432C88.2674 207.517 88.1608 207.624 88.0328 207.752C87.9047 207.88 87.7341 208.029 87.5207 208.2C87.2221 208.413 87.0301 208.477 86.9447 208.392C86.8167 208.221 87.1154 207.816 87.8407 207.176C87.9261 207.091 88.1821 206.877 88.6088 206.536C89.0354 206.152 89.4194 205.853 89.7608 205.64C90.1021 205.427 90.5288 205.171 91.0408 204.872C91.5528 204.531 92.1074 204.189 92.7048 203.848C93.9421 203.208 95.0941 202.717 96.1608 202.376C97.2701 202.035 98.2514 201.928 99.1048 202.056C99.7448 202.141 100.171 202.44 100.385 202.952C100.641 203.421 100.662 203.933 100.449 204.488ZM98.8488 202.696C98.2088 202.696 97.3554 203.08 96.2888 203.848C95.2221 204.616 94.1128 205.576 92.9608 206.728C91.6381 208.008 90.6781 209.075 90.0807 209.928C89.5261 210.739 89.2914 211.357 89.3768 211.784C89.4194 212.211 89.6968 212.424 90.2088 212.424C90.8061 212.424 91.6381 212.125 92.7048 211.528C93.7714 210.931 94.7314 210.227 95.5848 209.416C96.0968 208.989 96.6088 208.499 97.1208 207.944C97.6328 207.389 98.1021 206.856 98.5288 206.344C98.9554 205.832 99.2968 205.363 99.5528 204.936C99.8514 204.467 100.001 204.104 100.001 203.848C100.043 203.08 99.6594 202.696 98.8488 202.696ZM109.67 204.168C110.524 203.485 111.292 202.973 111.974 202.632C112.657 202.248 113.34 202.056 114.022 202.056C114.62 202.056 115.025 202.205 115.238 202.504C115.494 202.803 115.622 203.123 115.622 203.464C115.622 203.848 115.494 204.253 115.238 204.68C115.025 205.107 114.705 205.619 114.278 206.216C113.809 206.856 113.276 207.56 112.678 208.328C112.081 209.096 111.612 209.736 111.27 210.248L111.334 210.312C112.102 209.672 112.998 208.925 114.022 208.072C115.046 207.219 116.113 206.365 117.222 205.512C118.332 204.659 119.526 203.869 120.806 203.144C122.086 202.419 123.196 202.056 124.134 202.056C124.945 202.056 125.5 202.227 125.798 202.568C126.14 202.909 126.268 203.357 126.182 203.912C126.097 204.424 125.798 205 125.286 205.64C124.774 206.28 124.241 206.92 123.686 207.56C123.132 208.2 122.684 208.733 122.342 209.16C122.001 209.587 121.681 209.992 121.382 210.376L121.446 210.44C122.172 209.8 123.068 209.032 124.134 208.136C125.244 207.24 126.353 206.365 127.462 205.512C128.572 204.659 129.766 203.869 131.046 203.144C132.326 202.419 133.457 202.056 134.438 202.056C135.164 202.056 135.697 202.227 136.038 202.568C136.38 202.867 136.508 203.272 136.422 203.784C136.337 204.381 136.017 205.021 135.462 205.704C134.908 206.387 134.374 207.048 133.862 207.688C133.35 208.285 132.924 208.84 132.582 209.352C132.241 209.821 131.964 210.205 131.75 210.504C131.281 211.229 131.196 211.699 131.494 211.912C131.665 212.04 131.9 212.061 132.198 211.976C132.497 211.891 132.774 211.784 133.03 211.656C133.414 211.443 133.841 211.208 134.31 210.952C134.78 210.653 135.377 210.227 136.102 209.672C136.657 209.245 137.212 208.797 137.766 208.328C138.364 207.816 138.833 207.389 139.174 207.048C139.601 206.664 139.878 206.536 140.006 206.664C140.092 206.792 139.921 207.069 139.494 207.496C139.196 207.795 138.641 208.307 137.83 209.032C137.062 209.715 136.337 210.312 135.654 210.824C135.313 211.08 134.908 211.357 134.438 211.656C134.012 211.955 133.542 212.232 133.03 212.488C132.518 212.744 131.985 212.957 131.43 213.128C130.918 213.299 130.406 213.384 129.894 213.384C128.529 213.384 127.889 212.829 127.974 211.72C128.017 210.995 128.337 210.248 128.934 209.48C129.532 208.669 130.108 207.923 130.662 207.24C131.132 206.643 131.58 206.088 132.006 205.576C132.476 205.064 132.924 204.573 133.35 204.104C133.478 203.933 133.564 203.763 133.606 203.592C133.649 203.421 133.585 203.293 133.414 203.208C133.244 203.123 133.009 203.123 132.71 203.208C132.412 203.293 132.092 203.421 131.75 203.592C131.153 203.891 130.428 204.317 129.574 204.872C128.721 205.384 127.782 206.045 126.758 206.856C126.033 207.411 125.393 207.923 124.838 208.392C124.284 208.861 123.729 209.331 123.174 209.8C122.62 210.227 122.044 210.675 121.446 211.144C120.892 211.613 120.273 212.125 119.59 212.68C119.078 213.064 118.524 213.256 117.926 213.256C117.414 213.256 117.094 213.192 116.966 213.064C116.838 212.936 116.881 212.659 117.094 212.232C117.436 211.549 117.926 210.739 118.566 209.8C119.249 208.819 119.889 207.965 120.486 207.24C121.041 206.557 121.574 205.96 122.086 205.448C122.598 204.893 122.961 204.445 123.174 204.104C123.302 203.933 123.366 203.763 123.366 203.592C123.409 203.421 123.324 203.293 123.11 203.208C122.812 203.123 122.278 203.251 121.51 203.592C120.913 203.891 120.166 204.317 119.27 204.872C118.417 205.427 117.5 206.088 116.518 206.856C115.793 207.411 115.153 207.923 114.598 208.392C114.044 208.861 113.489 209.331 112.934 209.8C112.38 210.227 111.804 210.675 111.206 211.144C110.652 211.613 110.033 212.125 109.35 212.68C108.838 213.064 108.284 213.256 107.686 213.256C107.217 213.256 106.897 213.192 106.726 213.064C106.556 212.979 106.598 212.701 106.854 212.232C107.068 211.805 107.473 211.165 108.07 210.312C108.668 209.416 109.201 208.627 109.67 207.944C110.14 207.261 110.588 206.664 111.014 206.152C111.484 205.597 111.889 205.085 112.23 204.616C112.657 204.061 112.806 203.699 112.678 203.528C112.508 203.315 112.188 203.336 111.718 203.592C111.334 203.805 110.908 204.061 110.438 204.36C110.012 204.659 109.606 204.979 109.222 205.32C108.796 205.661 108.348 206.045 107.878 206.472C107.409 206.899 106.94 207.325 106.47 207.752C105.873 208.264 105.51 208.456 105.382 208.328C105.297 208.2 105.617 207.795 106.342 207.112C106.726 206.771 107.217 206.323 107.814 205.768C108.454 205.171 109.073 204.637 109.67 204.168ZM142.932 212.616C143.359 212.616 144.084 212.467 145.108 212.168C146.132 211.869 147.348 211.229 148.756 210.248C149.354 209.821 149.994 209.352 150.676 208.84C151.402 208.285 152.063 207.731 152.66 207.176C153.002 206.877 153.236 206.792 153.364 206.92C153.492 207.091 153.322 207.368 152.852 207.752C152.426 208.136 151.786 208.669 150.932 209.352C150.122 210.035 149.418 210.568 148.82 210.952C146.175 212.701 143.764 213.576 141.588 213.576C139.242 213.576 138.111 212.723 138.196 211.016C138.239 209.821 138.879 208.499 140.116 207.048L140.052 206.984C139.967 207.069 139.775 207.24 139.476 207.496C139.22 207.752 138.986 207.965 138.772 208.136C138.474 208.392 138.26 208.456 138.132 208.328C138.047 208.243 138.068 208.136 138.196 208.008C138.282 207.88 138.388 207.752 138.516 207.624C138.943 207.24 139.327 206.92 139.668 206.664C140.01 206.365 140.415 206.045 140.884 205.704C141.226 205.448 141.674 205.149 142.228 204.808C142.826 204.467 143.423 204.125 144.02 203.784C144.959 203.315 145.898 202.909 146.836 202.568C147.775 202.184 148.671 201.992 149.524 201.992H149.588C150.314 201.992 150.804 202.184 151.06 202.568C151.359 202.909 151.487 203.293 151.444 203.72C151.359 204.573 150.89 205.32 150.036 205.96C149.226 206.6 148.33 207.155 147.348 207.624C146.41 208.093 145.428 208.499 144.404 208.84C143.423 209.181 142.57 209.459 141.844 209.672C141.588 210.184 141.46 210.675 141.46 211.144C141.46 212.125 141.951 212.616 142.932 212.616ZM142.228 208.968C142.868 208.797 143.572 208.563 144.34 208.264C145.151 207.923 145.898 207.517 146.58 207.048C147.391 206.493 148.01 205.917 148.436 205.32C148.906 204.723 149.162 204.189 149.204 203.72C149.29 203.123 149.034 202.824 148.436 202.824C147.882 202.824 146.943 203.443 145.62 204.68C145.108 205.149 144.511 205.832 143.828 206.728C143.146 207.581 142.612 208.328 142.228 208.968ZM159.183 201.928C157.689 203.293 156.367 204.488 155.215 205.512C154.105 206.536 153.295 207.283 152.783 207.752C152.228 208.264 151.887 208.456 151.759 208.328C151.673 208.243 151.716 208.093 151.887 207.88C152.057 207.667 152.313 207.411 152.655 207.112C153.38 206.472 154.127 205.789 154.895 205.064C155.705 204.339 156.409 203.677 157.007 203.08C157.604 202.525 158.457 201.757 159.567 200.776C160.676 199.752 161.764 198.749 162.831 197.768C163.172 197.427 163.556 197.128 163.983 196.872C164.409 196.616 164.857 196.488 165.327 196.488C166.052 196.488 166.351 196.595 166.223 196.808C166.137 197.021 165.817 197.448 165.263 198.088C164.324 199.197 163.215 200.541 161.935 202.12C160.697 203.656 159.353 205.363 157.903 207.24C156.495 209.075 155.001 211.016 153.423 213.064C151.887 215.112 150.351 217.181 148.815 219.272C147.407 221.192 146.233 222.813 145.295 224.136C144.313 225.459 143.417 226.696 142.607 227.848C141.796 229 140.985 230.173 140.175 231.368C139.364 232.605 138.425 234.056 137.359 235.72C137.103 236.147 136.953 236.445 136.911 236.616C136.868 236.787 136.889 236.915 136.975 237C137.145 237.171 137.423 237.043 137.807 236.616C138.02 236.36 138.319 235.976 138.703 235.464C139.044 234.995 139.449 234.44 139.919 233.8C140.388 233.16 140.879 232.477 141.391 231.752C141.86 231.027 142.329 230.344 142.799 229.704C143.481 228.723 144.505 227.336 145.871 225.544C147.193 223.752 148.623 221.832 150.159 219.784C151.481 218.035 152.783 216.328 154.063 214.664C155.385 213 156.665 211.443 157.903 209.992C158.756 209.011 159.695 208.029 160.719 207.048C161.743 206.024 162.681 205.192 163.535 204.552C164.388 203.912 165.305 203.336 166.287 202.824C167.268 202.312 168.185 202.056 169.039 202.056C170.447 202.056 171.087 202.611 170.959 203.72C170.873 204.275 170.553 204.893 169.999 205.576C169.487 206.216 168.932 206.877 168.335 207.56C167.823 208.157 167.375 208.691 166.991 209.16C166.607 209.587 166.308 209.971 166.095 210.312C165.625 211.037 165.561 211.528 165.903 211.784C166.244 212.04 166.82 211.976 167.631 211.592C168.015 211.379 168.441 211.123 168.911 210.824C169.423 210.525 169.977 210.141 170.575 209.672C171.172 209.203 171.705 208.776 172.175 208.392C172.644 207.965 173.092 207.56 173.519 207.176C173.689 207.005 173.86 206.856 174.031 206.728C174.244 206.6 174.393 206.579 174.479 206.664C174.564 206.749 174.521 206.899 174.351 207.112C174.18 207.283 174.052 207.411 173.967 207.496C173.796 207.667 173.54 207.901 173.199 208.2C172.9 208.456 172.559 208.755 172.175 209.096C171.833 209.395 171.471 209.693 171.087 209.992C170.703 210.291 170.361 210.568 170.063 210.824C169.38 211.336 168.527 211.891 167.503 212.488C166.479 213.085 165.412 213.384 164.303 213.384C163.492 213.384 162.916 213.192 162.575 212.808C162.276 212.424 162.169 211.997 162.255 211.528C162.34 210.845 162.681 210.12 163.279 209.352C163.876 208.584 164.473 207.88 165.071 207.24C165.583 206.643 166.116 206.045 166.671 205.448C167.225 204.851 167.609 204.381 167.823 204.04C168.079 203.613 168.079 203.336 167.823 203.208C167.695 203.123 167.481 203.123 167.183 203.208C166.927 203.293 166.671 203.4 166.415 203.528C165.391 204.04 164.324 204.723 163.215 205.576C162.148 206.387 160.996 207.475 159.759 208.84C159.247 209.395 158.628 210.099 157.903 210.952C157.22 211.805 156.452 212.744 155.599 213.768C154.788 214.792 153.935 215.859 153.039 216.968C152.185 218.12 151.332 219.272 150.479 220.424C149.071 222.344 147.684 224.221 146.319 226.056C144.911 227.933 143.716 229.576 142.735 230.984C142.223 231.752 141.711 232.499 141.199 233.224C140.644 233.992 140.132 234.696 139.663 235.336C139.151 236.019 138.703 236.595 138.319 237.064C137.892 237.576 137.529 237.96 137.231 238.216C136.975 238.429 136.697 238.6 136.399 238.728C136.057 238.899 135.716 238.941 135.375 238.856C134.649 238.728 134.287 238.28 134.287 237.512C134.287 236.787 134.543 235.955 135.055 235.016C135.524 234.077 136.079 233.117 136.719 232.136C137.316 231.24 137.913 230.365 138.511 229.512C139.065 228.659 139.684 227.741 140.367 226.76C141.049 225.821 141.817 224.755 142.671 223.56C143.524 222.408 144.527 221.064 145.679 219.528C146.447 218.461 147.428 217.139 148.623 215.56C149.817 213.981 151.076 212.36 152.399 210.696C153.679 208.989 154.916 207.368 156.111 205.832C157.348 204.253 158.372 202.952 159.183 201.928ZM178.778 203.848C178.564 203.933 178.159 204.189 177.562 204.616C177.007 205 176.495 205.384 176.026 205.768C175.556 206.152 175.13 206.493 174.746 206.792C174.404 207.091 174.063 207.389 173.722 207.688C173.21 208.115 172.89 208.285 172.762 208.2C172.676 208.115 172.698 208.008 172.826 207.88C172.911 207.752 173.124 207.517 173.466 207.176C173.636 207.005 173.892 206.771 174.234 206.472C174.618 206.173 175.023 205.853 175.45 205.512C175.876 205.171 176.303 204.829 176.73 204.488C177.199 204.147 177.626 203.848 178.01 203.592C178.863 202.995 179.546 202.611 180.058 202.44C180.57 202.269 181.124 202.184 181.722 202.184C182.404 202.184 182.788 202.248 182.874 202.376C182.959 202.504 182.81 202.781 182.426 203.208C181.999 203.677 181.487 204.253 180.89 204.936C180.335 205.619 179.738 206.365 179.098 207.176C178.586 207.859 178.095 208.52 177.626 209.16C177.199 209.8 176.9 210.291 176.73 210.632C176.474 211.187 176.452 211.571 176.666 211.784C176.922 212.04 177.412 211.997 178.138 211.656C178.863 211.272 179.588 210.824 180.314 210.312C181.082 209.757 181.956 209.096 182.938 208.328C184.474 207.133 185.754 206.109 186.778 205.256C187.802 204.403 188.826 203.571 189.85 202.76C190.106 202.547 190.362 202.376 190.618 202.248C190.874 202.12 191.236 202.056 191.706 202.056C192.26 202.056 192.644 202.12 192.858 202.248C193.114 202.333 193.05 202.611 192.666 203.08C192.068 203.805 191.514 204.467 191.002 205.064C190.49 205.619 189.914 206.323 189.274 207.176C188.164 208.541 187.375 209.629 186.906 210.44C186.479 211.165 186.415 211.635 186.714 211.848C187.012 212.061 187.503 211.997 188.186 211.656C188.527 211.485 188.954 211.229 189.466 210.888C190.02 210.547 190.554 210.163 191.066 209.736C191.706 209.224 192.282 208.755 192.794 208.328C193.348 207.859 193.796 207.453 194.138 207.112C194.607 206.643 194.906 206.493 195.034 206.664C195.119 206.749 195.076 206.899 194.906 207.112C194.735 207.283 194.607 207.411 194.522 207.496C194.138 207.88 193.583 208.392 192.858 209.032C192.132 209.629 191.386 210.227 190.618 210.824C190.319 211.037 189.956 211.293 189.53 211.592C189.146 211.891 188.698 212.168 188.186 212.424C187.716 212.68 187.204 212.893 186.65 213.064C186.138 213.277 185.626 213.384 185.114 213.384C183.791 213.384 183.13 212.872 183.13 211.848C183.13 211.379 183.215 210.931 183.386 210.504C183.599 210.077 183.855 209.651 184.154 209.224C184.495 208.712 184.943 208.179 185.498 207.624C186.052 207.027 186.607 206.451 187.162 205.896L187.098 205.832C186.458 206.344 185.647 206.984 184.666 207.752C183.727 208.52 182.831 209.224 181.978 209.864C180.655 210.845 179.418 211.677 178.266 212.36C177.156 213.043 176.111 213.384 175.13 213.384C174.447 213.384 173.914 213.235 173.53 212.936C173.146 212.637 172.975 212.189 173.018 211.592C173.06 211.123 173.21 210.675 173.466 210.248C173.679 209.779 173.935 209.352 174.234 208.968C174.874 208.115 175.535 207.283 176.218 206.472C176.943 205.661 177.796 204.787 178.778 203.848ZM214.894 207.112C214.04 208.947 212.59 210.504 210.542 211.784C208.835 212.893 207.427 213.448 206.318 213.448C204.867 213.448 204.142 212.829 204.142 211.592C204.142 210.653 204.568 209.608 205.422 208.456C204.099 209.395 202.691 209.864 201.198 209.864C200.088 209.864 199.299 209.501 198.83 208.776C198.232 209.715 197.251 211.037 195.886 212.744C195.118 213.085 194.392 213.256 193.71 213.256C192.771 213.256 192.302 213.085 192.302 212.744C192.302 212.147 193.262 210.675 195.182 208.328C196.803 206.28 198.083 204.808 199.022 203.912V203.848C196.206 206.152 194.627 207.304 194.286 207.304C194.2 207.304 194.158 207.261 194.158 207.176C194.542 206.323 195.694 205.32 197.614 204.168C199.534 202.973 200.963 202.376 201.902 202.376C202.712 202.376 203.118 202.483 203.118 202.696C203.118 202.867 202.115 204.253 200.11 206.856C200.451 207.069 200.622 207.347 200.622 207.688C200.622 207.901 200.515 208.136 200.302 208.392C200.131 208.605 200.046 208.755 200.046 208.84C200.046 209.224 200.323 209.416 200.878 209.416C202.542 209.416 204.099 208.819 205.55 207.624C205.635 207.581 206.744 206.451 208.878 204.232C210.072 202.995 211.139 202.376 212.078 202.376C212.974 202.376 213.422 202.504 213.422 202.76C213.422 202.845 212.44 204.104 210.478 206.536C208.558 208.925 207.598 210.44 207.598 211.08C207.598 211.379 207.662 211.613 207.79 211.784C207.918 211.912 208.067 211.976 208.238 211.976C209.006 211.976 211.096 210.333 214.51 207.048H214.702C214.787 207.048 214.851 207.069 214.894 207.112ZM226.761 204.488C227.529 203.677 228.191 203.08 228.745 202.696C229.343 202.269 229.897 202.056 230.409 202.056C231.092 202.013 231.476 202.077 231.561 202.248C231.689 202.419 231.583 202.696 231.241 203.08C230.815 203.549 230.281 204.168 229.641 204.936C229.001 205.661 228.34 206.451 227.657 207.304C227.231 207.816 226.825 208.349 226.441 208.904C226.057 209.416 225.716 209.928 225.417 210.44C224.991 211.208 224.927 211.699 225.225 211.912C225.396 212.04 225.609 212.061 225.865 211.976C226.164 211.891 226.441 211.784 226.697 211.656C227.039 211.485 227.465 211.229 227.977 210.888C228.532 210.504 229.065 210.099 229.577 209.672C230.26 209.117 230.857 208.627 231.369 208.2C231.881 207.773 232.308 207.389 232.649 207.048C232.863 206.877 233.033 206.749 233.161 206.664C233.332 206.536 233.46 206.515 233.545 206.6C233.673 206.728 233.396 207.112 232.713 207.752C232.287 208.136 231.732 208.627 231.049 209.224C230.367 209.821 229.727 210.355 229.129 210.824C228.489 211.336 227.679 211.891 226.697 212.488C225.716 213.085 224.692 213.384 223.625 213.384C223.028 213.384 222.58 213.256 222.281 213C221.983 212.744 221.812 212.424 221.769 212.04C221.727 211.699 221.791 211.315 221.961 210.888C222.132 210.461 222.367 210.077 222.665 209.736L222.601 209.672C222.175 210.056 221.684 210.461 221.129 210.888C220.575 211.272 219.977 211.656 219.337 212.04C218.74 212.381 218.1 212.68 217.417 212.936C216.777 213.192 216.159 213.341 215.561 213.384C214.836 213.427 214.196 213.277 213.641 212.936C213.044 212.552 212.809 211.848 212.937 210.824C213.023 210.355 213.193 209.864 213.449 209.352C213.705 208.797 214.132 208.179 214.729 207.496L214.665 207.432C214.58 207.517 214.473 207.624 214.345 207.752C214.217 207.88 214.047 208.029 213.833 208.2C213.535 208.413 213.343 208.477 213.257 208.392C213.129 208.221 213.428 207.816 214.153 207.176C214.239 207.091 214.495 206.877 214.921 206.536C215.348 206.152 215.732 205.853 216.073 205.64C216.415 205.427 216.841 205.171 217.353 204.872C217.865 204.531 218.42 204.189 219.017 203.848C220.255 203.208 221.407 202.717 222.473 202.376C223.583 202.035 224.564 201.928 225.417 202.056C226.057 202.141 226.484 202.44 226.697 202.952C226.953 203.421 226.975 203.933 226.761 204.488ZM225.161 202.696C224.521 202.696 223.668 203.08 222.601 203.848C221.535 204.616 220.425 205.576 219.273 206.728C217.951 208.008 216.991 209.075 216.393 209.928C215.839 210.739 215.604 211.357 215.689 211.784C215.732 212.211 216.009 212.424 216.521 212.424C217.119 212.424 217.951 212.125 219.017 211.528C220.084 210.931 221.044 210.227 221.897 209.416C222.409 208.989 222.921 208.499 223.433 207.944C223.945 207.389 224.415 206.856 224.841 206.344C225.268 205.832 225.609 205.363 225.865 204.936C226.164 204.467 226.313 204.104 226.313 203.848C226.356 203.08 225.972 202.696 225.161 202.696Z" fill="white"/>
</svg>
