<svg width="224" height="162" viewBox="0 0 224 162" fill="none" xmlns="http://www.w3.org/2000/svg">
<path d="M20.7615 129.38C19.9849 129.891 19.332 130.08 18.803 129.946C18.6191 129.925 18.4228 129.766 18.2139 129.469C18.0051 129.172 17.8997 128.909 17.898 128.679L17.9303 128.403L17.8954 128.335L17.8928 127.99L17.8242 128.025C16.7334 129.503 15.9162 130.726 15.3726 131.694L14.9623 132.076C14.825 132.146 14.7103 132.147 14.6179 132.079C14.4565 131.988 14.3754 131.885 14.3745 131.771L14.2696 131.565C14.4715 130.943 14.547 130.3 14.496 129.635L14.6617 128.772C14.7704 127.968 15.0435 127.656 15.4811 127.836C15.7115 127.95 15.828 128.178 15.8306 128.523L15.7349 129.522L17.4409 127.443C17.7818 126.981 17.9634 126.716 17.9859 126.647C18.3707 125.932 18.6801 125.861 18.914 126.433C19.0539 126.707 19.0794 127.04 18.9905 127.431C18.7662 128.121 18.7696 128.581 19.0009 128.808C19.2564 129.197 19.7613 129.17 20.5155 128.728C21.2698 128.286 22.3532 127.36 23.7659 125.948C24.313 125.439 25.1669 124.514 26.3276 123.174C27.2829 121.996 27.8524 121.418 28.0362 121.439C28.4263 121.413 28.3823 121.666 27.9042 122.198C27.8585 122.221 27.8015 122.279 27.7334 122.371C27.301 122.88 26.9938 123.238 26.8117 123.446L26.505 123.861L25.9251 124.589L25.1743 125.49C23.8989 126.831 22.8732 127.815 22.0974 128.441L20.7615 129.38ZM35.3015 121.54C34.5196 121.362 34.1592 120.768 34.2204 119.757C34.2627 119.275 34.2833 118.976 34.2825 118.862C34.1461 119.046 33.851 119.485 33.3971 120.177C32.3556 122.09 31.1703 123.213 29.8413 123.544C29.1535 123.664 28.6585 123.484 28.3564 123.005C27.7065 122.068 27.599 121.518 28.034 121.354C28.1254 121.307 28.2747 121.318 28.4819 121.385C28.758 121.475 28.9087 121.657 28.9337 121.933C28.957 121.978 28.9462 122.07 28.9014 122.208C28.8565 122.346 28.8457 122.438 28.869 122.484C29.0555 122.85 29.2635 123.032 29.493 123.03C30.3431 123.116 31.5732 121.855 33.1834 119.249C33.5692 118.649 33.8639 118.153 34.0675 117.761C34.2936 117.3 34.4291 117.001 34.4739 116.863C34.5188 116.725 34.5753 116.61 34.6435 116.517C34.7574 116.402 34.8942 116.274 35.0538 116.135C35.3049 115.95 35.5682 115.844 35.8435 115.819C36.0748 116.047 36.1455 116.299 36.0558 116.575C35.6235 117.084 35.331 117.866 35.1783 118.924C35.0023 119.935 35.1335 120.588 35.572 120.884C35.9414 121.156 36.7633 120.565 38.0379 119.109C39.2892 117.607 40.3113 116.164 41.1043 114.781L41.2066 114.642L41.4124 114.537L41.516 114.571C41.6308 114.57 41.7115 114.615 41.7581 114.707C41.7814 114.753 41.7589 114.822 41.6908 114.914L38.6917 119.035C37.3515 120.927 36.2215 121.763 35.3015 121.54ZM44.2451 116.983C44.0164 117.099 43.7752 117.078 43.5214 116.92C43.222 116.784 43.0481 116.556 42.9997 116.235C42.8832 116.006 42.8353 115.742 42.856 115.444L42.8171 114.859C42.7938 114.813 42.7139 114.882 42.5776 115.067C42.487 115.229 42.374 115.459 42.2385 115.758C42.0797 116.012 41.9438 116.254 41.8308 116.485C41.2431 117.706 40.6749 118.456 40.126 118.736C39.7144 118.946 39.4386 118.913 39.2988 118.639C39.2289 118.502 39.2841 118.214 39.4645 117.777C39.9382 116.671 40.6406 115.449 41.5717 114.111C42.0031 113.487 42.2758 113.118 42.3897 113.002C42.5494 112.863 42.687 112.851 42.8027 112.965C42.8493 113.056 42.987 113.044 43.2156 112.927C43.3986 112.834 43.5363 112.821 43.6286 112.89C43.7434 112.889 43.8016 113.003 43.8034 113.233C43.7818 113.417 43.7715 113.566 43.7724 113.681C43.7732 113.795 43.74 113.956 43.6727 114.163C43.4277 115.153 43.5477 115.84 44.0327 116.227C44.0793 116.318 44.1713 116.329 44.3085 116.259C44.4914 116.166 44.6399 116.062 44.7538 115.946L44.9932 115.738C45.7233 115.135 47.3167 113.344 49.7735 110.364L49.8758 110.225L50.0816 110.12L50.1852 110.154C50.2542 110.176 50.3121 110.233 50.3587 110.325C50.382 110.37 50.3824 110.428 50.36 110.497L47.3582 114.273L45.2742 116.459L45.0684 116.563C44.8173 116.749 44.5428 116.889 44.2451 116.983ZM39.9486 118.049L40.2904 117.702C41.0402 116.686 41.4713 116.005 41.5834 115.66C41.6732 115.384 41.8885 115.015 42.2293 114.553C42.4572 114.322 42.5478 114.161 42.5012 114.069C42.4312 113.932 42.2034 114.163 41.8177 114.763C41.0445 115.733 40.5121 116.667 40.2204 117.564L39.9486 118.049ZM62.4611 103.899C62.8512 103.873 62.8072 104.126 62.3291 104.658C62.2834 104.681 62.2264 104.739 62.1583 104.831C61.7259 105.339 61.4187 105.698 61.2366 105.906L60.9299 106.321L60.35 107.049L59.5992 107.95C58.3238 109.291 57.2981 110.274 56.5223 110.9L55.1864 111.84C54.4098 112.351 53.7569 112.54 53.2279 112.406C52.8602 112.363 52.5706 112.021 52.3591 111.379L52.3216 110.967L52.3539 110.691C51.4849 111.134 50.9145 111.597 50.6427 112.081L50.3114 113.806L50.2777 113.909L49.8674 114.291C49.7302 114.361 49.6154 114.362 49.523 114.294C49.3617 114.203 49.3034 114.089 49.3483 113.951L49.2434 113.745C49.4453 113.123 49.5208 112.48 49.4698 111.815L49.7687 110.366C49.8774 109.562 50.1277 109.261 50.5195 109.465C50.7499 109.578 50.8664 109.807 50.8691 110.151L50.7371 110.91L52.3474 109.83L52.416 109.795L52.7175 108.691C53.2414 108.136 53.6073 107.949 53.8153 108.131C53.9309 108.245 53.8869 108.498 53.6833 108.89C53.1414 110.088 53.0556 110.881 53.4258 111.268C53.7271 111.633 54.2319 111.606 54.9404 111.188C55.6256 110.723 56.7091 109.797 58.1908 108.408C58.7379 107.899 59.5918 106.974 60.7525 105.634C61.7768 104.478 62.3463 103.9 62.4611 103.899ZM78.8127 125.123C78.5159 125.332 78.2867 125.391 78.1254 125.3C77.9415 125.279 77.7909 125.096 77.6735 124.753L77.4974 124.237C77.5863 123.846 77.572 123.479 77.4546 123.136C77.4995 122.998 77.5435 122.745 77.5866 122.377L77.6552 122.342C77.7001 122.204 77.6992 122.089 77.6526 121.998C77.5818 121.746 77.7928 120.803 78.2854 119.169C78.7548 117.49 79.2043 116.224 79.6341 115.371C80.1759 114.173 80.7075 113.124 81.2287 112.225L81.9432 111.083C82.328 110.369 82.6115 109.907 82.7936 109.699C83.0214 109.468 83.112 109.307 83.0654 109.215C83.0878 109.146 83.1219 109.1 83.1677 109.077C83.3049 109.007 83.5094 108.73 83.7812 108.246C86.1448 105.082 87.384 103.5 87.4987 103.5L87.6696 103.326C87.7835 103.21 87.8517 103.118 87.8741 103.049C87.9414 102.842 88.1576 102.588 88.5226 102.287C89.024 101.801 89.3959 100.891 89.6383 99.5576C89.7263 99.0518 89.9709 98.0054 90.3721 96.4183C90.7275 94.8545 91.0273 93.5206 91.2715 92.4168C91.4923 91.2673 91.5687 90.7387 91.5005 90.831L90.2035 92.3561C90.1353 92.4484 89.9412 92.5762 89.621 92.7393C89.2551 92.9257 89.0031 92.9965 88.865 92.9516C88.7269 92.9068 88.6113 92.7929 88.518 92.6099C88.4015 92.3812 88.3886 92.1862 88.4792 92.0248L88.6138 91.6105C88.6595 91.5872 88.7281 91.5523 88.8196 91.5057C88.842 91.4366 88.8645 91.3676 88.8869 91.2985L89.2597 90.5037C89.7584 89.6734 90.2356 89.027 90.6913 88.5644C91.5344 87.7315 92.1191 87.6352 92.4453 88.2755C92.4919 88.367 92.5614 88.4468 92.6538 88.515L92.7237 88.6522C92.7703 88.7437 92.7608 89.0078 92.6953 89.4445L92.5349 90.9953L92.2372 92.6161C92.1699 92.8232 91.9805 93.5823 91.6691 94.8932C91.3343 96.1584 91.0449 97.343 90.8007 98.4468C90.5333 99.5049 90.4336 99.9877 90.5018 99.8954L91.5956 98.8195C92.6208 97.7787 94.5141 96.1802 97.2756 94.0242L100.768 91.3805L102.241 90.3707C103.338 89.6966 104.035 89.3125 104.333 89.2184C104.792 89.2149 104.966 89.3858 104.853 89.731L104.649 90.008L104.171 90.5971C103.898 90.8517 103.658 91.0027 103.452 91.0502C103.039 91.1452 102.923 91.0313 103.105 90.7085C103.126 90.5247 103.046 90.4794 102.863 90.5726C102.771 90.6192 102.577 90.7469 102.28 90.9558C101.685 91.2588 101.229 91.5492 100.909 91.8271L95.158 96.3131C95.0207 96.383 94.8952 96.4758 94.7813 96.5914C94.6898 96.638 94.61 96.7075 94.5418 96.7999L94.4046 96.8698C94.3597 97.0079 94.2229 97.1352 93.9942 97.2517C93.7655 97.3682 93.6288 97.4955 93.5839 97.6336C93.4476 97.8183 93.3449 97.8994 93.2758 97.877L93.07 97.9819C93.0476 98.0509 92.8996 98.2127 92.626 98.4674C91.0994 99.9941 90.2922 101.01 90.2042 101.516C89.8901 102.483 89.6999 103.127 89.6334 103.449C89.0778 105.864 88.2357 108.338 87.107 110.872L85.2109 115.122L83.448 118.786L82.4293 120.687L81.953 121.449L81.2721 122.487C80.3635 123.756 79.5437 124.635 78.8127 125.123ZM89.4436 92.0519C89.8095 91.8655 90.3109 91.3795 90.9477 90.5942C91.5613 89.763 91.8214 89.256 91.7282 89.073C91.7049 89.0273 91.6247 89.0394 91.4874 89.1093C91.3269 89.1335 91.1668 89.215 91.0072 89.354C90.8475 89.4929 90.6995 89.6548 90.5632 89.8395C89.9488 90.5558 89.5406 91.2247 89.3387 91.8461C89.2714 92.0532 89.3064 92.1218 89.4436 92.0519ZM78.3959 124.644L79.2165 123.88C79.9906 123.025 80.6607 122.078 81.2267 121.041C81.521 120.488 81.7138 120.188 81.8053 120.141C81.8511 120.118 81.8964 120.037 81.9412 119.899C81.8946 119.808 81.9171 119.739 82.0085 119.692C82.0543 119.669 82.349 119.173 82.8926 118.204C83.4362 117.236 83.7641 116.579 83.8763 116.234L84.2154 115.543C84.3966 115.22 84.5545 114.852 84.6891 114.437L85.7698 111.64C87.7277 106.436 88.625 103.675 88.4619 103.355C88.4843 103.285 88.5184 103.239 88.5641 103.216C88.5866 103.147 88.5861 103.09 88.5628 103.044C88.5162 102.952 88.288 103.126 87.878 103.566L87.1609 104.363C86.8425 104.756 86.695 104.975 86.7183 105.021L86.4788 105.229C86.3416 105.299 86.2617 105.369 86.2393 105.438C86.2626 105.483 85.9105 105.98 85.1831 106.926C84.4108 108.011 83.934 108.715 83.7528 109.038L83.3101 109.695C82.9899 109.859 82.1512 111.265 80.7938 113.916C80.025 115.46 79.4499 116.819 79.0685 117.992C78.4853 119.788 78.1544 121.569 78.076 123.338C78.1287 124.233 78.2353 124.668 78.3959 124.644ZM110.165 79.5927C110.555 79.5668 110.511 79.8197 110.033 80.3513C109.987 80.3746 109.93 80.4325 109.862 80.5248C109.43 81.0332 109.122 81.3913 108.94 81.5993L108.634 82.0149L108.054 82.7425L107.303 83.6435C106.027 84.9847 105.002 85.9682 104.226 86.594L102.89 87.5339C102.113 88.0449 101.461 88.2335 100.932 88.0997C100.564 88.0566 100.274 87.7145 100.063 87.0732L100.025 86.6603L100.058 86.3846C99.1885 86.8273 98.6181 87.2908 98.3463 87.775L98.015 89.4993L97.9814 89.6029L97.571 89.9848C97.4338 90.0547 97.319 90.0556 97.2267 89.9874C97.0653 89.8968 97.007 89.7825 97.0519 89.6444L96.947 89.4386C97.1489 88.8172 97.2244 88.1738 97.1734 87.5084L97.4724 86.0598C97.5811 85.2555 97.8313 84.9551 98.2231 85.1588C98.4536 85.2718 98.5701 85.5005 98.5727 85.8448L98.4407 86.6034L100.051 85.5237L100.12 85.4887L100.421 84.3845C100.945 83.8295 101.311 83.6431 101.519 83.8252C101.635 83.9391 101.591 84.1919 101.387 84.5838C100.845 85.7817 100.759 86.5744 101.129 86.9618C101.431 87.3269 101.936 87.3001 102.644 86.8815C103.329 86.4171 104.413 85.4906 105.894 84.1019C106.442 83.5927 107.295 82.6679 108.456 81.3275C109.48 80.1719 110.05 79.5936 110.165 79.5927ZM123.59 72.752C123.705 72.7511 123.786 72.7965 123.832 72.8879C123.856 72.9337 123.833 73.0027 123.765 73.0951L120.766 77.2158C119.426 79.1085 118.296 79.9435 117.376 79.7209C116.594 79.5432 116.234 78.949 116.295 77.9384C116.337 77.456 116.358 77.1574 116.357 77.0426C116.221 77.2273 115.925 77.6657 115.472 78.3579C114.43 80.2713 113.245 81.3938 111.916 81.7252C111.228 81.8453 110.733 81.6654 110.431 81.1855C109.781 80.2492 109.673 79.699 110.108 79.535C110.2 79.4884 110.349 79.4988 110.556 79.5661C110.832 79.6558 110.983 79.8383 111.008 80.1136C111.031 80.1594 111.021 80.2513 110.976 80.3894C110.931 80.5274 110.92 80.6194 110.943 80.6651C111.13 81.031 111.338 81.2131 111.567 81.2113C112.303 81.2976 113.374 80.2908 114.782 78.191C113.799 78.8642 113.227 79.0407 113.064 78.7206C112.97 78.5376 113.367 77.8459 114.253 76.6453C114.753 75.9299 115.288 75.3404 115.858 74.8769C116.474 74.3901 116.898 74.2032 117.128 74.3163C117.379 74.1307 117.643 74.0254 117.918 74.0004C118.149 74.2282 118.22 74.4802 118.13 74.7563C117.698 75.2647 117.405 76.0475 117.253 77.1047C117.077 78.1162 117.208 78.7695 117.646 79.0646C118.016 79.3373 118.838 78.7456 120.112 77.2896C121.364 75.7879 122.386 74.3452 123.179 72.9618L123.281 72.8232L123.487 72.7184L123.59 72.752ZM114.055 77.7833C114.17 77.7824 114.25 77.7703 114.296 77.747C114.318 77.6779 114.432 77.5623 114.638 77.4C114.889 77.2145 115.06 77.0984 115.152 77.0518C115.517 76.7505 115.903 76.2655 116.311 75.5966C116.38 75.5043 116.447 75.3545 116.515 75.1474L116.103 75.3572C115.943 75.4961 115.761 75.7041 115.557 75.9812C114.578 77.1135 114.078 77.7142 114.055 77.7833ZM156.637 60.1487C155.86 60.6597 155.207 60.8483 154.678 60.7145C154.494 60.693 154.298 60.5338 154.089 60.2369C153.88 59.94 153.775 59.6768 153.773 59.4473L153.805 59.1715L153.77 59.1029L153.768 58.7586L153.699 58.7935C152.608 60.2711 151.791 61.4941 151.248 62.4624L150.837 62.8443C150.7 62.9142 150.585 62.9151 150.493 62.8469C150.332 62.7563 150.25 62.6536 150.25 62.5389L150.145 62.333C150.347 61.7116 150.422 61.0683 150.371 60.4029L150.537 59.5407C150.645 58.7364 150.918 58.4244 151.356 58.6047C151.586 58.7177 151.703 58.9464 151.706 59.2908L151.61 60.2902L153.316 58.211C153.657 57.7493 153.838 57.4839 153.861 57.4148C154.246 56.7002 154.555 56.629 154.789 57.2012C154.929 57.4756 154.954 57.8083 154.865 58.1993C154.641 58.8897 154.645 59.3488 154.876 59.5766C155.131 59.965 155.636 59.9382 156.391 59.4963C157.145 59.0543 158.228 58.1278 159.641 56.7167C160.188 56.2075 161.042 55.2827 162.203 53.9423C163.158 52.7642 163.727 52.186 163.911 52.2075C164.301 52.1816 164.257 52.4345 163.779 52.9661C163.734 52.9894 163.677 53.0473 163.608 53.1396C163.176 53.648 162.869 54.0061 162.687 54.2141L162.38 54.6297L161.8 55.3573L161.049 56.2583C159.774 57.5995 158.748 58.583 157.972 59.2088L156.637 60.1487ZM171.176 52.3081C170.395 52.1304 170.034 51.5363 170.095 50.5257C170.138 50.0432 170.158 49.7446 170.157 49.6298C170.021 49.8145 169.726 50.253 169.272 50.9451C168.231 52.8585 167.045 53.981 165.716 54.3125C165.028 54.4325 164.534 54.2526 164.231 53.7728C163.582 52.8364 163.474 52.2863 163.909 52.1223C164 52.0756 164.15 52.086 164.357 52.1533C164.633 52.243 164.784 52.4255 164.809 52.7008C164.832 52.7466 164.821 52.8385 164.776 52.9766C164.731 53.1147 164.721 53.2066 164.744 53.2523C164.93 53.6182 165.138 53.8003 165.368 53.7986C166.218 53.8839 167.448 52.6234 169.058 50.017C169.444 49.4172 169.739 48.9213 169.943 48.5295C170.169 48.0686 170.304 47.7692 170.349 47.6311C170.394 47.493 170.45 47.3778 170.518 47.2854C170.632 47.1698 170.769 47.0425 170.929 46.9035C171.18 46.7179 171.443 46.6126 171.718 46.5876C171.95 46.8154 172.021 47.0674 171.931 47.3436C171.498 47.8519 171.206 48.6347 171.053 49.6919C170.877 50.7034 171.009 51.3567 171.447 51.6518C171.816 51.9245 172.638 51.3328 173.913 49.8768C175.164 48.3751 176.186 46.9325 176.979 45.549L177.082 45.4105L177.287 45.3056L177.391 45.3392C177.506 45.3384 177.586 45.3837 177.633 45.4751C177.656 45.5209 177.634 45.5899 177.566 45.6823L174.567 49.803C173.227 51.6957 172.096 52.5307 171.176 52.3081ZM180.12 47.7511C179.891 47.8677 179.65 47.8465 179.396 47.6878C179.097 47.5523 178.923 47.324 178.875 47.003C178.758 46.7743 178.71 46.5106 178.731 46.212L178.692 45.6269C178.669 45.5812 178.589 45.6507 178.453 45.8354C178.362 45.9967 178.249 46.2272 178.113 46.5267C177.955 46.7804 177.819 47.0225 177.706 47.2529C177.118 48.4741 176.55 49.2246 176.001 49.5042C175.589 49.714 175.314 49.6816 175.174 49.4072C175.104 49.27 175.159 48.9826 175.339 48.545C175.813 47.4395 176.516 46.2174 177.447 44.8788C177.878 44.2556 178.151 43.8862 178.265 43.7706C178.424 43.6316 178.562 43.6191 178.678 43.733C178.724 43.8245 178.862 43.812 179.091 43.6954C179.274 43.6022 179.411 43.5897 179.504 43.6579C179.618 43.657 179.677 43.7714 179.678 44.0009C179.657 44.1847 179.646 44.334 179.647 44.4488C179.648 44.5636 179.615 44.7246 179.548 44.9317C179.303 45.9207 179.423 46.6085 179.908 46.9951C179.954 47.0866 180.046 47.0974 180.183 47.0275C180.366 46.9343 180.515 46.8298 180.629 46.7142L180.868 46.5057C181.598 45.9033 183.192 44.112 185.649 41.1318L185.751 40.9933L185.957 40.8884L186.06 40.9221C186.129 40.9445 186.187 41.0015 186.234 41.0929C186.257 41.1387 186.257 41.1961 186.235 41.2651L183.233 45.0415L181.149 47.2268L180.943 47.3316C180.692 47.5172 180.418 47.657 180.12 47.7511ZM175.824 48.8168L176.165 48.4699C176.915 47.4541 177.346 46.7735 177.458 46.4283C177.548 46.1521 177.763 45.7832 178.104 45.3214C178.332 45.0901 178.423 44.9288 178.376 44.8373C178.306 44.7001 178.078 44.9314 177.693 45.5312C176.92 46.5013 176.387 47.4351 176.095 48.3327L175.824 48.8168ZM198.336 34.6672C198.726 34.6413 198.682 34.8941 198.204 35.4258C198.158 35.4491 198.101 35.5069 198.033 35.5993C197.601 36.1076 197.294 36.4658 197.112 36.6738L196.805 37.0893L196.225 37.8169L195.474 38.718C194.199 40.0592 193.173 41.0427 192.397 41.6684L191.061 42.6083C190.285 43.1193 189.632 43.3079 189.103 43.1742C188.735 43.1311 188.446 42.7889 188.234 42.1477L188.197 41.7347L188.229 41.459C187.36 41.9018 186.789 42.3653 186.518 42.8495L186.186 44.5738L186.153 44.6774L185.742 45.0593C185.605 45.1292 185.49 45.1301 185.398 45.0619C185.237 44.9713 185.178 44.8569 185.223 44.7188L185.118 44.513C185.32 43.8916 185.396 43.2482 185.345 42.5829L185.644 41.1343C185.752 40.3299 186.003 40.0296 186.394 40.2332C186.625 40.3463 186.741 40.5749 186.744 40.9193L186.612 41.6779L188.222 40.5981L188.291 40.5632L188.593 39.4589C189.116 38.904 189.482 38.7175 189.69 38.8996C189.806 39.0135 189.762 39.2664 189.558 39.6582C189.016 40.8561 188.931 41.6488 189.301 42.0363C189.602 42.4013 190.107 42.3745 190.815 41.9559C191.501 41.4916 192.584 40.565 194.066 39.1763C194.613 38.6671 195.467 37.7423 196.627 36.402C197.652 35.2463 198.221 34.668 198.336 34.6672Z" fill="#01423E"/>
<path d="M17.4502 96.7596C16.6735 97.2705 16.0206 97.4592 15.4916 97.3254C15.3078 97.3039 15.1114 97.1447 14.9025 96.8478C14.6937 96.5509 14.5884 96.2877 14.5866 96.0582L14.619 95.7824L14.584 95.7138L14.5814 95.3695L14.5128 95.4044C13.422 96.882 12.6048 98.1049 12.0612 99.0733L11.6509 99.4552C11.5137 99.5251 11.3989 99.526 11.3065 99.4578C11.1451 99.3672 11.064 99.2645 11.0631 99.1497L10.9583 98.9439C11.1602 98.3225 11.2356 97.6791 11.1847 97.0138L11.3503 96.1516C11.459 95.3473 11.7321 95.0353 12.1697 95.2156C12.4001 95.3286 12.5166 95.5573 12.5192 95.9017L12.4235 96.9011L14.1296 94.8219C14.4704 94.3602 14.6521 94.0948 14.6745 94.0257C15.0594 93.3111 15.3687 93.2399 15.6027 93.8121C15.7425 94.0865 15.768 94.4192 15.6791 94.8101C15.4548 95.5006 15.4583 95.9597 15.6896 96.1875C15.9451 96.5759 16.4499 96.5491 17.2042 96.1072C17.9584 95.6652 19.0419 94.7387 20.4545 93.3276C21.0016 92.8183 21.8555 91.8936 23.0162 90.5532C23.9715 89.3751 24.541 88.7968 24.7248 88.8184C25.1149 88.7925 25.0709 89.0454 24.5929 89.577C24.5471 89.6003 24.4902 89.6581 24.422 89.7505C23.9897 90.2588 23.6825 90.617 23.5004 90.825L23.1936 91.2406L22.6137 91.9682L21.8629 92.8692C20.5875 94.2104 19.5619 95.1939 18.7861 95.8197L17.4502 96.7596ZM31.9901 88.919C31.2082 88.7413 30.8478 88.1471 30.909 87.1365C30.9513 86.6541 30.972 86.3555 30.9711 86.2407C30.8348 86.4254 30.5396 86.8639 30.0857 87.556C29.0442 89.4694 27.8589 90.5919 26.5299 90.9234C25.8421 91.0434 25.3471 90.8635 25.045 90.3836C24.3951 89.4473 24.2876 88.8972 24.7226 88.7331C24.8141 88.6865 24.9634 88.6969 25.1705 88.7642C25.4467 88.8539 25.5973 89.0364 25.6223 89.3117C25.6456 89.3575 25.6349 89.4494 25.59 89.5875C25.5451 89.7256 25.5343 89.8175 25.5576 89.8632C25.7441 90.2291 25.9521 90.4112 26.1816 90.4095C27.0317 90.4948 28.2619 89.2343 29.8721 86.6279C30.2578 86.028 30.5525 85.5322 30.7561 85.1404C30.9822 84.6795 31.1177 84.38 31.1625 84.242C31.2074 84.1039 31.2639 83.9887 31.3321 83.8963C31.446 83.7807 31.5828 83.6533 31.7424 83.5144C31.9936 83.3288 32.2568 83.2235 32.5321 83.1985C32.7634 83.4263 32.8342 83.6783 32.7444 83.9545C32.3121 84.4628 32.0196 85.2456 31.8669 86.3028C31.6909 87.3143 31.8222 87.9676 32.2606 88.2627C32.63 88.5354 33.452 87.9437 34.7265 86.4877C35.9778 84.986 37 83.5433 37.793 82.1599L37.8952 82.0213L38.101 81.9165L38.2046 81.9501C38.3194 81.9493 38.4001 81.9946 38.4467 82.086C38.47 82.1318 38.4476 82.2008 38.3794 82.2932L35.3803 86.4139C34.0401 88.3066 32.9101 89.1416 31.9901 88.919ZM40.9337 84.362C40.705 84.4785 40.4638 84.4574 40.2101 84.2986C39.9106 84.1632 39.7367 83.9349 39.6883 83.6139C39.5718 83.3852 39.5239 83.1215 39.5446 82.8229L39.5057 82.2378C39.4824 82.1921 39.4026 82.2615 39.2662 82.4462C39.1756 82.6076 39.0626 82.8381 38.9271 83.1375C38.7683 83.3913 38.6324 83.6334 38.5194 83.8638C37.9318 85.085 37.3635 85.8355 36.8147 86.1151C36.403 86.3249 36.1273 86.2925 35.9874 86.0181C35.9175 85.8809 35.9727 85.5935 36.1531 85.1559C36.6268 84.0504 37.3292 82.8283 38.2603 81.4897C38.6918 80.8665 38.9645 80.4971 39.0784 80.3815C39.238 80.2425 39.3757 80.23 39.4913 80.3439C39.5379 80.4354 39.6756 80.4229 39.9043 80.3063C40.0872 80.2131 40.2249 80.2006 40.3172 80.2688C40.432 80.2679 40.4903 80.3822 40.492 80.6118C40.4704 80.7956 40.4601 80.9449 40.461 81.0597C40.4618 81.1745 40.4286 81.3354 40.3613 81.5426C40.1163 82.5316 40.2363 83.2194 40.7214 83.606C40.768 83.6975 40.8599 83.7083 40.9971 83.6384C41.18 83.5452 41.3285 83.4407 41.4424 83.3251L41.6819 83.1166C42.4119 82.5142 44.0054 80.7229 46.4622 77.7427L46.5644 77.6042L46.7702 77.4993L46.8738 77.5329C46.9429 77.5554 47.0007 77.6123 47.0473 77.7038C47.0706 77.7496 47.071 77.8069 47.0486 77.876L44.0469 81.6523L41.9628 83.8377L41.757 83.9425C41.5059 84.1281 41.2315 84.2679 40.9337 84.362ZM36.6373 85.4277L36.979 85.0808C37.7289 84.0649 38.1599 83.3844 38.2721 83.0392C38.3618 82.763 38.5771 82.3941 38.918 81.9323C39.1458 81.701 39.2364 81.5396 39.1898 81.4482C39.1199 81.3109 38.892 81.5423 38.5063 82.1421C37.7331 83.1122 37.2007 84.046 36.9091 84.9436L36.6373 85.4277ZM59.1497 71.2781C59.5398 71.2521 59.4958 71.505 59.0177 72.0367C58.972 72.06 58.9151 72.1178 58.8469 72.2101C58.4145 72.7185 58.1073 73.0767 57.9253 73.2847L57.6185 73.7002L57.0386 74.4278L56.2878 75.3288C55.0124 76.6701 53.9868 77.6536 53.2109 78.2793L51.8751 79.2192C51.0984 79.7302 50.4455 79.9188 49.9165 79.7851C49.5488 79.742 49.2593 79.3998 49.0478 78.7586L49.0102 78.3456L49.0425 78.0699C48.1735 78.5127 47.6031 78.9762 47.3313 79.4603L47 81.1847L46.9664 81.2882L46.556 81.6702C46.4188 81.7401 46.304 81.7409 46.2117 81.6728C46.0503 81.5822 45.992 81.4678 46.0369 81.3297L45.932 81.1239C46.1339 80.5025 46.2094 79.8591 46.1584 79.1938L46.4573 77.7452C46.566 76.9408 46.8163 76.6405 47.2081 76.8441C47.4385 76.9571 47.5551 77.1858 47.5577 77.5302L47.4257 78.2888L49.036 77.209L49.1046 77.1741L49.4062 76.0698C49.93 75.5149 50.2959 75.3284 50.5039 75.5105C50.6195 75.6244 50.5755 75.8773 50.3719 76.2691C49.83 77.467 49.7442 78.2597 50.1145 78.6472C50.4157 79.0122 50.9205 78.9854 51.629 78.5668C52.3143 78.1024 53.3977 77.1759 54.8794 75.7872C55.4265 75.278 56.2804 74.3532 57.4411 73.0128C58.4654 71.8572 59.035 71.2789 59.1497 71.2781ZM75.5014 92.5018C75.2045 92.7107 74.9754 92.7698 74.814 92.6792C74.6302 92.6577 74.4795 92.4751 74.3621 92.1317L74.1861 91.6165C74.2749 91.2255 74.2606 90.8583 74.1433 90.5148C74.1881 90.3767 74.2321 90.1239 74.2752 89.7562L74.3438 89.7213C74.3887 89.5832 74.3878 89.4684 74.3412 89.3769C74.2704 89.1249 74.4814 88.1821 74.9741 86.5483C75.4434 84.8689 75.893 83.6028 76.3227 82.7501C76.8646 81.5522 77.3961 80.5036 77.9173 79.6043L78.6318 78.4624C79.0167 77.7478 79.3001 77.2865 79.4822 77.0785C79.71 76.8472 79.8006 76.6858 79.754 76.5943C79.7765 76.5253 79.8105 76.4791 79.8563 76.4558C79.9935 76.3859 80.198 76.1089 80.4698 75.6247C82.8334 72.4616 84.0726 70.8795 84.1874 70.8787L84.3582 70.7052C84.4721 70.5895 84.5403 70.4972 84.5628 70.4282C84.6301 70.221 84.8462 69.9668 85.2113 69.6656C85.7126 69.1797 86.0845 68.2701 86.3269 66.9367C86.4149 66.4309 86.6595 65.3845 87.0607 63.7974C87.4162 62.2336 87.716 60.8998 87.9601 59.7959C88.181 58.6464 88.2573 58.1178 88.1891 58.2101L86.8921 59.7352C86.824 59.8275 86.6298 59.9553 86.3096 60.1184C85.9437 60.3048 85.6917 60.3756 85.5536 60.3308C85.4155 60.2859 85.2999 60.172 85.2067 59.989C85.0901 59.7603 85.0772 59.5653 85.1678 59.4039L85.3024 58.9896C85.3481 58.9663 85.4167 58.9314 85.5082 58.8848C85.5306 58.8157 85.5531 58.7467 85.5755 58.6776L85.9483 57.8828C86.447 57.0525 86.9242 56.4061 87.3799 55.9435C88.223 55.1106 88.8077 55.0143 89.134 55.6547C89.1806 55.7461 89.25 55.826 89.3424 55.8941L89.4123 56.0313C89.4589 56.1228 89.4494 56.3869 89.3839 56.8236L89.2235 58.3745L88.9259 59.9952C88.8586 60.2024 88.6692 60.9614 88.3577 62.2723C88.023 63.5376 87.7335 64.7221 87.4893 65.8259C87.2219 66.884 87.1222 67.3668 87.1904 67.2745L88.2842 66.1987C89.3094 65.1578 91.2028 63.5593 93.9643 61.4033L97.4567 58.7596L98.9298 57.7498C100.027 57.0757 100.724 56.6916 101.022 56.5975C101.481 56.594 101.654 56.7649 101.542 57.1101L101.338 57.3871L100.86 57.9762C100.586 58.2308 100.347 58.3818 100.14 58.4293C99.7277 58.5243 99.6121 58.4104 99.7933 58.0876C99.8148 57.9038 99.7342 57.8585 99.5512 57.9517C99.4597 57.9983 99.2656 58.126 98.9687 58.3349C98.3741 58.6379 97.9171 58.9283 97.5978 59.2062L91.8466 63.6922C91.7094 63.7621 91.5838 63.8549 91.4699 63.9705C91.3784 64.0171 91.2986 64.0866 91.2304 64.179L91.0932 64.2489C91.0483 64.387 90.9116 64.5143 90.6829 64.6308C90.4542 64.7473 90.3174 64.8746 90.2725 65.0127C90.1362 65.1974 90.0335 65.2785 89.9644 65.2561L89.7586 65.361C89.7362 65.43 89.5882 65.5919 89.3146 65.8465C87.7881 67.3733 86.9808 68.3895 86.8928 68.8953C86.5787 69.8619 86.3885 70.5061 86.322 70.828C85.7664 73.2428 84.9243 75.7171 83.7957 78.251L81.8995 82.5011L80.1366 86.1648L79.1179 88.0665L78.6416 88.8277L77.9608 89.866C77.0521 91.1356 76.2323 92.0142 75.5014 92.5018ZM86.1322 59.431C86.4981 59.2446 86.9995 58.7587 87.6364 57.9733C88.2499 57.1421 88.5101 56.6351 88.4168 56.4521C88.3935 56.4064 88.3133 56.4185 88.1761 56.4884C88.0155 56.5126 87.8555 56.5941 87.6958 56.7331C87.5362 56.8721 87.3882 57.0339 87.2518 57.2186C86.6374 57.9349 86.2292 58.6038 86.0273 59.2252C85.96 59.4323 85.995 59.5009 86.1322 59.431ZM75.0845 92.0229L75.9052 91.259C76.6792 90.4037 77.3493 89.4574 77.9154 88.42C78.2096 87.8668 78.4025 87.5669 78.4939 87.5203C78.5397 87.497 78.585 87.4163 78.6299 87.2782C78.5832 87.1867 78.6057 87.1177 78.6972 87.071C78.7429 87.0477 79.0376 86.5519 79.5812 85.5836C80.1248 84.6152 80.4527 83.9584 80.5649 83.6132L80.904 82.9219C81.0852 82.5991 81.2431 82.2306 81.3777 81.8164L82.4585 79.0188C84.4163 73.8155 85.3136 71.0538 85.1505 70.7336C85.1729 70.6646 85.207 70.6184 85.2527 70.5951C85.2752 70.5261 85.2747 70.4687 85.2514 70.4229C85.2048 70.3314 84.9766 70.5054 84.5667 70.9447L83.8496 71.7422C83.5311 72.1348 83.3836 72.3541 83.4069 72.3998L83.1674 72.6082C83.0302 72.6782 82.9504 72.7476 82.9279 72.8167C82.9512 72.8624 82.5992 73.3587 81.8717 74.3055C81.0994 75.3903 80.6226 76.0942 80.4414 76.4169L79.9987 77.0746C79.6786 77.2377 78.8398 78.6445 77.4825 81.2949C76.7136 82.8389 76.1385 84.1978 75.7572 85.3715C75.1739 87.1667 74.843 88.9484 74.7646 90.7167C74.8173 91.6117 74.924 92.0471 75.0845 92.0229ZM106.853 46.9718C107.243 46.9459 107.199 47.1988 106.721 47.7304C106.676 47.7537 106.619 47.8116 106.551 47.9039C106.118 48.4123 105.811 48.7704 105.629 48.9784L105.322 49.394L104.742 50.1216L103.991 51.0226C102.716 52.3638 101.69 53.3473 100.915 53.9731L99.5787 54.913C98.802 55.424 98.1492 55.6126 97.6201 55.4789C97.2525 55.4357 96.9629 55.0936 96.7514 54.4524L96.7139 54.0394L96.7462 53.7637C95.8772 54.2065 95.3067 54.6699 95.0349 55.1541L94.7037 56.8784L94.67 56.982L94.2597 57.3639C94.1225 57.4338 94.0077 57.4347 93.9153 57.3665C93.7539 57.2759 93.6957 57.1616 93.7405 57.0235L93.6357 56.8177C93.8376 56.1963 93.913 55.5529 93.8621 54.8875L94.161 53.4389C94.2697 52.6346 94.5199 52.3342 94.9118 52.5379C95.1422 52.6509 95.2587 52.8796 95.2613 53.224L95.1293 53.9826L96.7397 52.9028L96.8083 52.8678L97.1098 51.7636C97.6336 51.2086 97.9995 51.0222 98.2075 51.2043C98.3232 51.3182 98.2792 51.5711 98.0755 51.9629C97.5337 53.1608 97.4478 53.9535 97.8181 54.3409C98.1193 54.706 98.6242 54.6792 99.3327 54.2606C100.018 53.7962 101.101 52.8697 102.583 51.481C103.13 50.9718 103.984 50.047 105.145 48.7066C106.169 47.551 106.739 46.9727 106.853 46.9718ZM120.279 40.1311C120.394 40.1303 120.474 40.1756 120.521 40.267C120.544 40.3128 120.522 40.3818 120.454 40.4742L117.455 44.5949C116.115 46.4876 114.984 47.3226 114.064 47.1C113.283 46.9223 112.922 46.3281 112.983 45.3175C113.026 44.8351 113.046 44.5365 113.045 44.4217C112.909 44.6064 112.614 45.0449 112.16 45.737C111.119 47.6504 109.933 48.7729 108.604 49.1044C107.916 49.2244 107.422 49.0445 107.119 48.5646C106.47 47.6283 106.362 47.0782 106.797 46.9141C106.888 46.8675 107.038 46.8779 107.245 46.9452C107.521 47.0349 107.672 47.2174 107.697 47.4927C107.72 47.5385 107.709 47.6304 107.664 47.7685C107.62 47.9066 107.609 47.9985 107.632 48.0442C107.818 48.4101 108.026 48.5922 108.256 48.5905C108.991 48.6767 110.063 47.6699 111.47 45.5701C110.488 46.2433 109.915 46.4198 109.752 46.0997C109.659 45.9167 110.056 45.225 110.942 44.0245C111.441 43.309 111.977 42.7195 112.547 42.256C113.163 41.7692 113.586 41.5824 113.817 41.6954C114.068 41.5098 114.331 41.4045 114.606 41.3795C114.838 41.6073 114.909 41.8593 114.819 42.1355C114.387 42.6438 114.094 43.4266 113.941 44.4838C113.765 45.4953 113.897 46.1486 114.335 46.4437C114.704 46.7164 115.526 46.1247 116.801 44.6687C118.052 43.167 119.074 41.7244 119.867 40.3409L119.97 40.2024L120.175 40.0975L120.279 40.1311ZM110.744 45.1624C110.859 45.1615 110.939 45.1494 110.985 45.1261C111.007 45.0571 111.121 44.9414 111.326 44.7791C111.578 44.5936 111.749 44.4775 111.84 44.4309C112.205 44.1297 112.592 43.6446 113 42.9757C113.068 42.8834 113.136 42.7337 113.203 42.5265L112.792 42.7363C112.632 42.8752 112.45 43.0832 112.245 43.3603C111.267 44.4926 110.766 45.0933 110.744 45.1624Z" fill="#01423E"/>
</svg>
