<svg width="412" height="115" viewBox="0 0 412 115" fill="none" xmlns="http://www.w3.org/2000/svg">
<path d="M-37.2214 109.452L-37.8108 109.209L-37.806 108.358C-37.8326 107.33 -37.5278 106.703 -36.8916 106.476C-36.7055 106.352 -36.4715 106.351 -36.1895 106.474C-35.9496 106.653 -35.9032 107.06 -36.0505 107.696C-36.1166 107.909 -36.0431 108.03 -35.8301 108.057C-35.6771 108.04 -35.3711 108.005 -34.912 107.954C-34.2909 107.935 -33.5648 107.775 -32.7335 107.475L-30.9915 106.737C-29.9232 106.307 -28.8384 105.823 -27.7371 105.286L-26.8728 104.879L-26.0985 104.405L-24.9686 103.736C-24.7736 103.662 -24.1178 103.253 -23.0014 102.508C-22.7223 102.321 -22.4687 102.138 -22.2406 101.958C-22.0125 101.777 -21.8264 101.653 -21.6823 101.585L-21.4663 101.483C-21.4153 101.478 -21.0686 101.232 -20.4264 100.747C-19.7841 100.262 -19.433 100.042 -19.373 100.087C-19.322 100.081 -19.1959 99.9119 -18.9947 99.5799L-18.3508 98.811L-17.6665 98.2696C-17.5584 97.9996 -17.3513 97.8473 -17.0453 97.8127C-16.8502 97.739 -16.6266 97.5333 -16.3744 97.1954C-16.1643 96.9139 -15.9827 96.7645 -15.8297 96.7472C-15.6767 96.7299 -15.5161 96.6086 -15.348 96.3833L-14.1593 95.1662C-14.0753 95.0536 -13.9702 94.9128 -13.8441 94.7439C-13.667 94.5692 -13.5365 94.4255 -13.4524 94.3129L-13.4028 94.1526C-13.4118 94.1021 -13.2512 93.9808 -12.9211 93.7888C-12.6751 93.7094 -12.1558 93.264 -11.3634 92.4526C-10.1237 91.2297 -8.78658 89.97 -7.35188 88.6735C-7.13275 88.4425 -6.86711 88.1804 -6.55496 87.8873C-6.2428 87.5942 -5.99818 87.3604 -5.82109 87.1857C-5.64399 87.011 -5.53443 86.8954 -5.49241 86.8391L-5.22677 86.5771C-5.17576 86.5713 -5.01519 86.45 -4.74506 86.2133L-3.26384 84.8857L0.418998 81.4531C0.629138 81.1716 0.785216 81.025 0.887231 81.0135C1.04026 80.9962 1.24285 80.8186 1.49502 80.4807L2.69713 79.3394C3.33042 78.8038 3.81967 78.336 4.16488 77.936L5.29047 76.8034C5.18846 76.8149 5.03992 76.8575 4.84487 76.9311C4.69185 76.9484 4.44129 77.0025 4.09322 77.0935C3.74514 77.1844 3.44807 77.2695 3.20201 77.3489L0.438406 78.0481C-2.19319 78.7582 -3.95315 79.3955 -4.84148 79.96C-5.74778 80.4234 -6.31785 80.4363 -6.55169 79.9987L-6.61904 79.6196C-6.53499 79.507 -5.90331 79.2551 -4.72401 78.864C-3.5537 78.4223 -2.769 78.1531 -2.36992 78.0564L-0.893549 77.5801C-0.461416 77.3765 0.357769 77.155 1.564 76.9155C4.10256 76.2675 5.41836 75.9124 5.51139 75.8504L5.97047 75.7984C6.24347 75.8707 6.58257 75.7292 6.98776 75.3741L8.11335 74.2414C8.6687 73.5599 8.96882 73.3455 9.01372 73.5982C9.03168 73.6993 8.69097 74.1245 7.99158 74.8739C7.73941 75.2117 7.71534 75.3691 7.91937 75.346C8.00343 75.2334 8.68306 75.105 9.95827 74.9608L14.7112 74.0366C14.8552 73.9687 17.2674 70.7056 21.9476 64.2472C22.7041 63.2337 23.0733 62.6763 23.0554 62.5752L23.1184 62.4908C23.2204 62.4792 23.5446 62.1074 24.091 61.3754C25.3939 59.6298 26.8198 57.8445 28.3687 56.0195C30.5391 53.2993 31.0299 52.5477 29.8413 53.7649L26.5502 56.7665C26.2201 56.9585 26.043 57.1332 26.0189 57.2906C25.9679 57.2964 25.9004 57.3555 25.8163 57.4682C25.7743 57.5245 25.7112 57.6089 25.6272 57.7216C25.5431 57.8342 25.4546 57.9215 25.3615 57.9836L24.7538 58.5164C24.5706 58.9495 24.1609 59.2794 23.5247 59.5061C23.3807 59.5739 23.3176 59.6584 23.3356 59.7595L23.1465 60.0128C22.6123 60.2279 22.0765 60.7268 21.5392 61.5093C21.26 61.6956 21.095 61.7916 21.044 61.7973C20.8999 61.8652 20.8369 61.9497 20.8549 62.0507C20.7708 62.1634 20.6567 62.2536 20.5127 62.3214C20.4707 62.3777 20.3611 62.4933 20.184 62.668C20.049 62.7863 19.9394 62.9018 19.8553 63.0145C19.6032 63.3523 19.4006 63.5299 19.2475 63.5472C19.1455 63.5588 19.0615 63.6714 18.9954 63.8851L18.7432 64.2229C18.6922 64.2287 18.1144 64.7839 17.0098 65.8884L16.0103 66.8521C15.9683 66.9084 15.8167 67.0802 15.5555 67.3675C15.3364 67.5985 15.1893 67.7956 15.1143 67.9588C14.718 68.3645 14.4689 68.5731 14.3669 68.5847C14.2139 68.602 13.9603 68.7853 13.6061 69.1347C13.2699 69.5852 12.8992 69.988 12.494 70.3432C12.0467 70.7547 11.8366 71.0362 11.8635 71.1879C11.8815 71.2889 11.8395 71.3452 11.7375 71.3568C11.6865 71.3626 11.2647 71.7711 10.4723 72.5826C10.3042 72.8078 10.1691 72.9262 10.0671 72.9377C9.9651 72.9493 9.82106 73.0171 9.63498 73.1413C9.37384 73.4286 9.22081 73.4459 9.17591 73.1932C9.16693 73.1427 9.38156 72.8864 9.8198 72.4244L10.6798 71.5537C10.8058 71.3848 10.8944 71.2975 10.9454 71.2917C10.9964 71.2859 11.157 71.1646 11.4271 70.9279C12.2436 69.9591 12.7284 69.466 12.8814 69.4487C12.9834 69.4372 13.0299 69.4061 13.0209 69.3556C13.3331 69.0625 13.6408 68.7441 13.9439 68.4005L15.7404 66.6506L16.1951 66.1352L16.992 65.349L18.1176 64.2164L18.7254 63.6836L19.2071 63.3198C19.7955 62.5314 20.6975 61.6045 21.9131 60.539L22.557 59.7702C22.599 59.7139 22.7596 59.5926 23.0387 59.4063L23.5834 58.9581L25.2764 57.0652L26.6181 55.8308C27.2844 55.1883 27.6086 54.8165 27.5906 54.7154C27.6747 54.6028 27.7467 54.5689 27.8067 54.6136C27.8577 54.6079 27.8787 54.5797 27.8698 54.5292C27.8518 54.4281 27.8938 54.3718 27.9958 54.3602C28.0469 54.3545 28.1654 54.2895 28.3515 54.1654L28.8062 53.6499L29.4905 53.1085L31.8947 50.8259C32.477 50.296 32.9783 49.7495 33.3986 49.1864L34.0694 48.5692C34.1535 48.4566 34.2706 48.2371 34.4207 47.9108C34.4358 47.7028 34.5274 47.4863 34.6955 47.261C34.9057 46.9795 35.1817 46.9225 35.5237 47.09C35.8416 47.415 35.9179 47.8446 35.7527 48.3788C35.6866 48.5925 35.4059 49.0625 34.9105 49.7888C34.4572 50.4587 34.07 50.915 33.7488 51.1575C33.5717 51.3322 32.5106 52.535 30.5655 54.7657L27.9764 57.7652L27.0173 58.9564C25.6785 60.4999 23.3925 63.594 20.1592 68.239L17.0071 72.4622L16.2145 73.7119L16.291 73.7033C16.393 73.6917 16.4695 73.6831 16.5205 73.6773C16.6226 73.6658 16.7501 73.6513 16.9031 73.634C17.0561 73.6167 17.1837 73.6023 17.2857 73.5908L21.3273 73.0563C23.7068 72.6841 25.0705 72.4526 25.4186 72.3617C25.8177 72.265 26.9729 72.0312 28.8843 71.6604C29.8955 71.4945 30.5421 71.4729 30.824 71.5957C31.439 71.8355 31.4509 72.195 30.8596 72.6744L29.8423 73.0987C29.4942 73.1897 29.2002 73.1456 28.9603 72.9665C28.7293 72.8379 28.1082 72.8566 27.097 73.0225C24.3095 73.4409 21.9256 73.7878 19.9453 74.0633C18.262 74.2537 17.0723 74.4398 16.3761 74.6217L15.4715 74.8013L14.6654 75.9752L13.5937 77.4111L12.7515 78.821L11.3419 80.9912L8.85149 84.985L6.77541 88.2358L5.09105 91.0558C4.92294 91.281 4.71424 91.7171 4.46494 92.3639C4.25767 92.9545 4.16302 93.3003 4.18098 93.4014C4.19894 93.5025 4.17936 93.6852 4.12225 93.9494C4.05615 94.1631 3.9976 94.2729 3.94659 94.2786L3.53709 94.1703C3.27307 94.1486 3.11861 94.0114 3.07371 93.7587C2.94798 93.0511 3.17932 92.3031 3.76771 91.5148L4.23164 90.6116C4.46585 90.1727 4.62947 89.9221 4.7225 89.8601L5.45207 88.6948C5.56918 88.4754 5.77034 88.1433 6.05555 87.6986L6.46991 86.9557C6.51194 86.8994 7.22947 85.8129 8.6225 83.6961L9.22598 82.6999L11.7795 78.6216L13.1529 76.6876L14.1347 75.1845L13.4326 75.1866L11.6097 75.47L8.95876 75.9245C7.59949 76.1814 6.76379 76.4563 6.45163 76.7494C6.28352 76.9746 6.01339 77.2114 5.64124 77.4597L1.84579 81.1371C1.75275 81.1992 1.62972 81.2389 1.4767 81.2562C1.3657 81.2172 1.20064 81.3132 0.981522 81.5442C0.80443 81.7189 0.724863 81.8568 0.742823 81.9578C0.787724 82.2106 0.374987 82.6697 -0.495387 83.3352L-4.31778 86.861L-12.5165 94.7484L-13.3269 95.4587L-14.592 96.6845L-18.2749 100.117C-18.8061 100.641 -19.5159 101.186 -20.4043 101.75C-20.8184 102.055 -21.2957 102.444 -21.8359 102.917C-22.1901 103.267 -23.6666 104.181 -26.2656 105.661C-28.8224 107.084 -30.3514 107.85 -30.8525 107.958C-31.1076 107.987 -31.4722 108.132 -31.9463 108.391C-34.2931 109.533 -36.0514 109.887 -37.2214 109.452ZM31.9008 77.7381C32.2848 77.8494 32.1677 78.0688 31.5495 78.3965C31.4984 78.4023 31.4264 78.4362 31.3334 78.4983C30.7662 78.8202 30.3641 79.0462 30.127 79.1761L29.7083 79.4555L28.934 79.9297L27.9437 80.5057C26.3172 81.3083 25.0373 81.8655 24.104 82.1773L22.5377 82.5865C21.6375 82.7914 20.952 82.74 20.481 82.4324C20.1391 82.2648 19.9607 81.8468 19.946 81.1782L20.0317 80.7818L20.1443 80.5371C19.1751 80.6467 18.4879 80.8791 18.0827 81.2342L17.254 82.72L17.191 82.8045L16.6824 83.0166C16.5293 83.034 16.4183 82.995 16.3494 82.8996C16.2204 82.7595 16.198 82.6332 16.282 82.5206L16.2416 82.2931C16.6199 81.7863 16.8826 81.2153 17.0299 80.5799L17.746 79.3389C18.0883 78.6299 18.4184 78.4379 18.7363 78.7629C18.9253 78.9478 18.9702 79.2005 18.871 79.521L18.5197 80.1794L20.3921 79.7357L20.4686 79.727L21.0856 78.8066C21.7548 78.4731 22.1629 78.4269 22.3098 78.6681C22.3877 78.814 22.2706 79.0334 21.9585 79.3265C21.082 80.2506 20.7652 80.9566 21.008 81.4448C21.1908 81.8881 21.6858 82.0383 22.493 81.8955C23.2911 81.7021 24.61 81.2178 26.4495 80.4427C27.1277 80.1598 28.2246 79.5975 29.7401 78.7558C31.0695 78.0384 31.7898 77.6991 31.9008 77.7381ZM35.6664 77.5443C35.7745 77.2743 35.6545 77.1847 35.3064 77.2756C34.3132 77.5426 33.1592 78.3692 31.8445 79.7552C31.8115 79.8621 31.7484 79.9465 31.6554 80.0086L31.5924 80.0931L31.0023 81.1652L30.9393 81.2496L30.4307 81.4618C30.2776 81.4791 30.1666 81.4401 30.0977 81.3448C29.9687 81.2047 29.9463 81.0784 30.0303 80.9658L29.9899 80.7383C30.3682 80.2315 30.6309 79.6605 30.7782 79.0251L31.1926 78.2822C31.5349 77.5733 31.865 77.3813 32.1829 77.7062C32.3718 77.8911 32.4168 78.1438 32.3176 78.4643L32.2546 78.5488L33.281 77.7367C35.0307 76.4561 36.1125 76.1018 36.5263 76.6737C36.7753 76.9033 36.8502 77.1784 36.751 77.4989C36.7029 77.8137 36.5258 77.9884 36.2197 78.023C35.9647 78.0519 35.8027 78.0187 35.7337 77.9233C35.6048 77.7832 35.5823 77.6569 35.6664 77.5443ZM49.6142 75.6575C49.9023 75.5218 50.0853 75.5269 50.1633 75.6728C50.2233 75.7176 50.1647 75.8273 49.9876 76.002C49.8946 76.0641 49.8016 76.1262 49.7085 76.1882L49.5059 76.3658C48.8037 76.8061 48.2155 77.1562 47.7413 77.4161C47.3181 77.6702 46.844 77.93 46.3188 78.1956C45.8446 78.4555 45.396 78.7125 44.9728 78.9665C42.2389 80.5647 39.5216 81.6711 36.821 82.2859C35.7588 82.4575 34.9892 82.5188 34.5122 82.4696C33.1831 82.3106 32.6044 81.3965 32.7761 79.7272C32.8394 79.2045 33.1485 79.0406 33.7034 79.2356C33.9764 79.3079 34.0754 79.4256 34.0003 79.5888C33.838 80.432 33.8047 80.9771 33.9006 81.2241C34.0325 81.6732 34.7615 81.8227 36.0877 81.6728C38.6112 81.2327 41.5625 80.1256 44.9416 78.3514L47.2779 77.0045L49.6142 75.6575ZM51.5419 80.6211C50.6327 80.7754 49.9396 80.828 49.4626 80.7789C48.1845 80.6141 47.6162 79.905 47.7578 78.6516C47.7308 78.5 47.809 78.2076 47.9922 77.7744C48.6499 76.2048 49.8175 75.0159 51.495 74.2075C52.6384 73.6141 53.3225 73.511 53.5474 73.898C53.6164 73.9933 53.5203 74.1847 53.2591 74.472C53.049 74.7535 52.6738 75.1311 52.1335 75.6046C51.155 76.5402 50.2757 77.1552 49.4955 77.4497C49.0633 77.6532 48.8142 77.8619 48.7481 78.0756C48.4539 78.4697 48.4627 78.9585 48.7745 79.542C48.9063 79.9911 49.5844 80.1464 50.8085 80.008C53.332 79.5679 56.2833 78.4608 59.6624 76.6866L61.9988 75.3397L64.3351 73.9927C64.6232 73.857 64.8062 73.8621 64.8841 74.008C64.9441 74.0528 64.8856 74.1625 64.7085 74.3372C64.6154 74.3993 64.5224 74.4614 64.4294 74.5234L64.2268 74.701C63.5245 75.1413 62.9363 75.4914 62.4621 75.7513C62.039 76.0054 61.5648 76.2652 61.0397 76.5308C60.5655 76.7907 60.1168 77.0477 59.6937 77.3017C56.9597 78.8999 54.2424 80.0063 51.5419 80.6211ZM49.5768 76.5898L50.3015 76.2758C50.4456 76.208 50.5851 76.1149 50.7202 75.9965C51.6416 75.3252 52.2073 74.8487 52.4175 74.5672C52.4085 74.5166 52.26 74.5592 51.9719 74.6949C51.7258 74.7743 51.4887 74.9042 51.2606 75.0847C51.0146 75.1641 50.6679 75.4095 50.2207 75.821C49.8245 76.2267 49.6099 76.483 49.5768 76.5898ZM75.3611 77.9273C74.2989 78.099 73.5293 78.1602 73.0523 78.1111C71.4592 77.9303 70.7485 77.0054 70.9202 75.3361C70.9504 74.9202 70.9144 74.7181 70.8124 74.7296C70.8034 74.6791 70.6804 74.7187 70.4433 74.8487C69.8941 75.2717 68.9698 75.634 67.6706 75.9356C67.2625 75.9818 66.943 75.9406 66.712 75.812C66.481 75.6835 66.4076 75.5629 66.4916 75.4502L65.6543 76.009C65.4772 76.1837 65.2746 76.3612 65.0465 76.5417C63.906 77.4441 63.2158 77.8057 62.9758 77.6266C62.7959 77.4923 62.7675 77.1861 62.8907 76.7082C63.2151 75.8981 63.8816 74.8174 64.8903 73.4659C64.9833 73.4039 65.1108 73.3894 65.2728 73.4227C65.4858 73.4501 65.5968 73.4891 65.6058 73.5397L65.6462 73.7671C65.7931 74.0083 65.4794 74.5851 64.7049 75.4976L64.4527 75.8355C64.5127 75.8803 64.5892 75.8716 64.6823 75.8095L64.8218 75.7164L65.1009 75.5302L65.227 75.3613L66.2535 74.5491L66.5822 74.2026C66.9784 73.7969 67.3264 73.706 67.6264 73.9299C67.7464 74.0194 67.7823 74.2216 67.7341 74.5364C67.626 74.8064 67.653 74.958 67.815 74.9912C68.028 75.0187 68.7152 74.7863 69.8765 74.2941C71.0288 73.7513 71.647 73.4236 71.7311 73.311C72.1363 72.9558 72.5099 72.862 72.8518 73.0296C73.0918 73.2087 73.0812 73.4419 72.8201 73.7292C72.2378 74.2591 71.963 74.9088 71.9957 75.6785C72.0434 76.2402 72.1663 76.6388 72.3642 76.8742C72.7001 77.3002 73.4546 77.4469 74.6278 77.3142C76.8452 76.9088 79.7875 75.7511 83.4547 73.8412L84.3955 73.4255L86.7318 72.0786L87.0244 71.9681L87.7222 71.5025C87.7732 71.4968 87.8452 71.4628 87.9382 71.4008C88.0313 71.3387 88.1033 71.3048 88.1543 71.299L88.3838 71.273C88.5638 71.4074 88.6328 71.5027 88.5907 71.559C88.5997 71.6095 88.4857 71.6998 88.2486 71.8297L88.046 72.0073C86.7345 72.8258 85.2235 73.6927 83.5129 74.608C80.7789 76.2061 78.0617 77.3126 75.3611 77.9273ZM90.4126 74.5237C90.1576 74.5526 89.9311 74.4493 89.7332 74.2139C89.4843 73.9842 89.3839 73.712 89.432 73.3972C89.3871 73.1445 89.4187 72.8832 89.5268 72.6132L89.6621 72.0565C89.6531 72.006 89.5556 72.0428 89.3695 72.1669C89.2344 72.2853 89.0573 72.46 88.8382 72.691C88.6101 72.8715 88.4075 73.0491 88.2304 73.2238C87.3029 74.1536 86.5332 74.6531 85.9211 74.7223C85.462 74.7742 85.2055 74.6486 85.1516 74.3453C85.1247 74.1937 85.2628 73.9461 85.566 73.6024C86.3494 72.7405 87.3879 71.8497 88.6814 70.93C89.2817 70.5013 89.6538 70.2529 89.7979 70.1851C89.9929 70.1115 90.1294 70.1476 90.2074 70.2935C90.2253 70.3945 90.3618 70.4307 90.6169 70.4018C90.8209 70.3787 90.9574 70.4149 91.0264 70.5102C91.1374 70.5492 91.1598 70.6755 91.0937 70.8892C91.0187 71.0524 90.9646 71.1874 90.9315 71.2943C90.8985 71.4011 90.8189 71.539 90.6928 71.7079C90.1644 72.541 90.0771 73.2212 90.431 73.7483C90.4489 73.8494 90.5344 73.8913 90.6874 73.8739C90.8915 73.8509 91.0655 73.8054 91.2096 73.7376L91.5021 73.6271C92.3844 73.3211 94.4506 72.211 97.7007 70.2967L97.8403 70.2036L98.0698 70.1776L98.1598 70.2448C98.2198 70.2896 98.2588 70.3625 98.2767 70.4636C98.2857 70.5141 98.2692 70.5675 98.2272 70.6239L94.2162 73.0882L91.5603 74.3939L91.3308 74.4199C91.0337 74.505 90.7277 74.5396 90.4126 74.5237ZM85.9528 74.0227L86.385 73.8192C87.4084 73.1363 88.0252 72.6541 88.2353 72.3725C88.4034 72.1473 88.7201 71.8795 89.1852 71.5691C89.4733 71.4334 89.6084 71.315 89.5904 71.2139C89.5635 71.0623 89.2754 71.198 88.7262 71.621C87.6938 72.2533 86.9044 72.9355 86.358 73.6675L85.9528 74.0227ZM140.909 89.3071L140.319 89.0644L140.324 88.2132C140.298 87.185 140.602 86.5576 141.239 86.331C141.425 86.2069 141.659 86.2062 141.941 86.329C142.181 86.508 142.227 86.9153 142.08 87.5506C142.014 87.7643 142.087 87.8849 142.3 87.9124C142.453 87.8951 142.759 87.8604 143.218 87.8085C143.839 87.7898 144.565 87.6304 145.397 87.3302L147.139 86.5918C148.207 86.1616 149.292 85.6781 150.393 85.141L151.257 84.734L152.032 84.2597L153.162 83.5906C153.357 83.517 154.012 83.1077 155.129 82.3627C155.408 82.1765 155.661 81.9931 155.89 81.8127C156.118 81.6322 156.304 81.5081 156.448 81.4402L156.664 81.3384C156.715 81.3327 157.062 81.0872 157.704 80.6021C158.346 80.117 158.697 79.8969 158.757 79.9417C158.808 79.9359 158.934 79.767 159.135 79.4349L159.779 78.666L160.464 78.1246C160.572 77.8546 160.779 77.7023 161.085 77.6677C161.28 77.5941 161.504 77.3883 161.756 77.0505C161.966 76.7689 162.147 76.6195 162.3 76.6022C162.453 76.5849 162.614 76.4636 162.782 76.2384L163.971 75.0212C164.055 74.9086 164.16 74.7678 164.286 74.5989C164.463 74.4242 164.594 74.2805 164.678 74.1679L164.727 74.0076C164.718 73.9571 164.879 73.8358 165.209 73.6438C165.455 73.5644 165.974 73.119 166.767 72.3076C168.006 71.0847 169.344 69.825 170.778 68.5285C170.997 68.2975 171.263 68.0354 171.575 67.7423C171.887 67.4493 172.132 67.2154 172.309 67.0407C172.486 66.866 172.596 66.7505 172.638 66.6941L172.903 66.4321C172.954 66.4263 173.115 66.3051 173.385 66.0683L174.866 64.7407L178.549 61.3081C178.759 61.0266 178.915 60.88 179.017 60.8685C179.17 60.8512 179.373 60.6736 179.625 60.3357L180.827 59.1944C181.461 58.6588 181.95 58.191 182.295 57.7911L183.421 56.6584C183.319 56.6699 183.17 56.7125 182.975 56.7861C182.822 56.8034 182.571 56.8575 182.223 56.9485C181.875 57.0394 181.578 57.1245 181.332 57.2039L178.569 57.9031C175.937 58.6132 174.177 59.2505 173.289 59.815C172.382 60.2784 171.812 60.2913 171.578 59.8537L171.511 59.4746C171.595 59.362 172.227 59.1101 173.406 58.719C174.576 58.2773 175.361 58.0081 175.76 57.9114L177.237 57.4351C177.669 57.2315 178.488 57.01 179.694 56.7705C182.233 56.1225 183.549 55.7675 183.642 55.7054L184.101 55.6535C184.374 55.7257 184.713 55.5842 185.118 55.2291L186.243 54.0964C186.799 53.4149 187.099 53.2005 187.144 53.4532C187.162 53.5543 186.821 53.9795 186.122 54.7289C185.87 55.0667 185.845 55.2241 186.05 55.201C186.134 55.0884 186.813 54.96 188.088 54.8158L192.841 53.8916C192.985 53.8238 195.398 50.5606 200.078 44.1023C200.834 43.0887 201.203 42.5313 201.186 42.4302L201.249 42.3458C201.351 42.3342 201.675 41.9625 202.221 41.2304C203.524 39.4848 204.95 37.6995 206.499 35.8745C208.669 33.1543 209.16 32.4027 207.971 33.6199L204.68 36.6215C204.35 36.8135 204.173 36.9882 204.149 37.1456C204.098 37.1514 204.031 37.2106 203.946 37.3232C203.904 37.3795 203.841 37.464 203.757 37.5766C203.673 37.6892 203.585 37.7765 203.492 37.8386L202.884 38.3714C202.701 38.8046 202.291 39.1345 201.655 39.3611C201.511 39.4289 201.448 39.5134 201.466 39.6145L201.277 39.8679C200.742 40.0829 200.207 40.5818 199.669 41.3643C199.39 41.5506 199.225 41.6466 199.174 41.6524C199.03 41.7202 198.967 41.8047 198.985 41.9057C198.901 42.0184 198.787 42.1086 198.643 42.1764C198.601 42.2328 198.491 42.3483 198.314 42.523C198.179 42.6414 198.07 42.7569 197.985 42.8695C197.733 43.2073 197.531 43.3849 197.378 43.4022C197.276 43.4138 197.192 43.5264 197.126 43.7401L196.873 44.078C196.822 44.0837 196.245 44.6389 195.14 45.7434L194.14 46.7071C194.098 46.7634 193.947 46.9352 193.686 47.2225C193.467 47.4536 193.319 47.6506 193.244 47.8138C192.848 48.2195 192.599 48.4281 192.497 48.4397C192.344 48.457 192.09 48.6403 191.736 48.9897C191.4 49.4402 191.029 49.843 190.624 50.1982C190.177 50.6097 189.967 50.8912 189.994 51.0429C190.012 51.144 189.97 51.2003 189.868 51.2118C189.817 51.2176 189.395 51.6262 188.602 52.4376C188.434 52.6628 188.299 52.7812 188.197 52.7927C188.095 52.8043 187.951 52.8721 187.765 52.9963C187.504 53.2836 187.351 53.3009 187.306 53.0482C187.297 52.9977 187.512 52.7414 187.95 52.2794L188.81 51.4088C188.936 51.2398 189.025 51.1525 189.076 51.1467C189.127 51.1409 189.287 51.0197 189.557 50.7829C190.374 49.8141 190.858 49.321 191.012 49.3037C191.114 49.2922 191.16 49.2611 191.151 49.2106C191.463 48.9175 191.771 48.5991 192.074 48.2555L193.871 46.5056L194.325 45.9902L195.122 45.204L196.248 44.0714L196.856 43.5386L197.337 43.1748C197.926 42.3865 198.828 41.4595 200.043 40.394L200.687 39.6252C200.729 39.5689 200.89 39.4476 201.169 39.2614L201.714 38.8131L203.407 36.9202L204.748 35.6858C205.415 35.0433 205.739 34.6715 205.721 34.5704C205.805 34.4578 205.877 34.4239 205.937 34.4687C205.988 34.4629 206.009 34.4347 206 34.3842C205.982 34.2831 206.024 34.2268 206.126 34.2153C206.177 34.2095 206.296 34.1445 206.482 34.0204L206.936 33.5049L207.621 32.9635L210.025 30.6809C210.607 30.151 211.108 29.6045 211.529 29.0414L212.2 28.4242C212.284 28.3116 212.401 28.0921 212.551 27.7658C212.566 27.5579 212.658 27.3413 212.826 27.116C213.036 26.8345 213.312 26.7775 213.654 26.945C213.972 27.27 214.048 27.6996 213.883 28.2338C213.817 28.4476 213.536 28.9175 213.041 29.6438C212.587 30.3138 212.2 30.77 211.879 31.0126C211.702 31.1873 210.641 32.39 208.696 34.6207L206.107 37.6202L205.147 38.8114C203.809 40.3549 201.523 43.449 198.289 48.094L195.137 52.3172L194.345 53.5669L194.421 53.5583C194.523 53.5467 194.6 53.5381 194.651 53.5323C194.753 53.5208 194.88 53.5063 195.033 53.489C195.186 53.4717 195.314 53.4573 195.416 53.4458L199.457 52.9114C201.837 52.5392 203.201 52.3076 203.549 52.2167C203.948 52.12 205.103 51.8862 207.014 51.5154C208.026 51.3495 208.672 51.3279 208.954 51.4507C209.569 51.6905 209.581 52.05 208.99 52.5294L207.972 52.9538C207.624 53.0447 207.33 53.0006 207.09 52.8215C206.859 52.693 206.238 52.7116 205.227 52.8775C202.44 53.2959 200.056 53.6428 198.075 53.9184C196.392 54.1087 195.202 54.2948 194.506 54.4767L193.602 54.6563L192.796 55.8302L191.724 57.2661L190.882 58.676L189.472 60.8462L186.982 64.84L184.906 68.0909L183.221 70.9108C183.053 71.136 182.844 71.5721 182.595 72.219C182.388 72.8095 182.293 73.1554 182.311 73.2564C182.329 73.3575 182.31 73.5402 182.252 73.8044C182.186 74.0181 182.128 74.1279 182.077 74.1336L181.667 74.0253C181.403 74.0036 181.249 73.8664 181.204 73.6137C181.078 72.9061 181.309 72.1581 181.898 71.3698L182.362 70.4666C182.596 70.0277 182.76 69.7772 182.853 69.7151L183.582 68.5499C183.699 68.3304 183.9 67.9983 184.186 67.5536L184.6 66.8107C184.642 66.7544 185.36 65.6679 186.753 63.5512L187.356 62.5549L189.91 58.4766L191.283 56.5426L192.265 55.0395L191.563 55.0416L189.74 55.3251L187.089 55.7795C185.73 56.0364 184.894 56.3113 184.582 56.6044C184.414 56.8297 184.144 57.0664 183.771 57.3147L179.976 60.9921C179.883 61.0542 179.76 61.0939 179.607 61.1112C179.496 61.0722 179.331 61.1682 179.112 61.3992C178.935 61.5739 178.855 61.7118 178.873 61.8129C178.918 62.0656 178.505 62.5247 177.635 63.1903L173.812 66.716L165.614 74.6034L164.803 75.3138L163.538 76.5395L159.855 79.9721C159.324 80.4962 158.614 81.0405 157.726 81.605C157.312 81.9096 156.834 82.2987 156.294 82.7723C155.94 83.1217 154.463 84.0362 151.865 85.516C149.308 86.9394 147.779 87.7052 147.278 87.8135C147.023 87.8423 146.658 87.9866 146.184 88.2465C143.837 89.3884 142.079 89.7419 140.909 89.3071ZM210.031 57.5931C210.415 57.7044 210.298 57.9239 209.68 58.2516C209.629 58.2573 209.557 58.2912 209.464 58.3533C208.896 58.6753 208.494 58.9012 208.257 59.0311L207.838 59.3105L207.064 59.7847L206.074 60.3607C204.447 61.1634 203.167 61.7206 202.234 62.0323L200.668 62.4415C199.768 62.6464 199.082 62.595 198.611 62.2874C198.269 62.1198 198.091 61.7018 198.076 61.0332L198.162 60.6368L198.274 60.3921C197.305 60.5017 196.618 60.7341 196.213 61.0892L195.384 62.575L195.321 62.6595L194.812 62.8717C194.659 62.889 194.548 62.85 194.48 62.7546C194.351 62.6146 194.328 62.4882 194.412 62.3756L194.372 62.1481C194.75 61.6414 195.013 61.0703 195.16 60.4349L195.876 59.1939C196.218 58.485 196.549 58.293 196.866 58.6179C197.055 58.8028 197.1 59.0555 197.001 59.376L196.65 60.0344L198.522 59.5907L198.599 59.582L199.216 58.6616C199.885 58.3281 200.293 58.2819 200.44 58.5231C200.518 58.669 200.401 58.8884 200.089 59.1815C199.212 60.1056 198.895 60.8117 199.138 61.2998C199.321 61.7431 199.816 61.8934 200.623 61.7505C201.421 61.5571 202.74 61.0729 204.58 60.2977C205.258 60.0148 206.355 59.4525 207.87 58.6108C209.2 57.8934 209.92 57.5541 210.031 57.5931ZM213.797 57.3993C213.905 57.1293 213.785 57.0397 213.437 57.1306C212.443 57.3976 211.289 58.2242 209.975 59.6102C209.942 59.7171 209.879 59.8015 209.786 59.8636L209.722 59.9481L209.132 61.0202L209.069 61.1047L208.561 61.3168C208.408 61.3342 208.297 61.2951 208.228 61.1998C208.099 61.0597 208.076 60.9334 208.16 60.8208L208.12 60.5933C208.498 60.0865 208.761 59.5155 208.908 58.8801L209.323 58.1372C209.665 57.4283 209.995 57.2363 210.313 57.5612C210.502 57.7461 210.547 57.9988 210.448 58.3194L210.385 58.4038L211.411 57.5917C213.161 56.3111 214.243 55.9568 214.656 56.5287C214.905 56.7583 214.98 57.0334 214.881 57.354C214.833 57.6687 214.656 57.8434 214.35 57.8781C214.095 57.9069 213.933 57.8737 213.864 57.7783C213.735 57.6383 213.712 57.5119 213.797 57.3993ZM227.744 55.5126C228.032 55.3769 228.215 55.3819 228.293 55.5278C228.353 55.5726 228.295 55.6823 228.118 55.857C228.025 55.9191 227.932 55.9812 227.839 56.0432L227.636 56.2208C226.934 56.6612 226.346 57.0112 225.871 57.2711C225.448 57.5252 224.974 57.785 224.449 58.0506C223.975 58.3105 223.526 58.5675 223.103 58.8216C220.369 60.4197 217.652 61.5261 214.951 62.1409C213.889 62.3126 213.119 62.3738 212.642 62.3246C211.313 62.1656 210.735 61.2515 210.906 59.5822C210.97 59.0595 211.279 58.8956 211.834 59.0907C212.107 59.1629 212.206 59.2806 212.13 59.4438C211.968 60.287 211.935 60.8322 212.031 61.0791C212.163 61.5282 212.892 61.6778 214.218 61.5278C216.741 61.0877 219.693 59.9806 223.072 58.2064L225.408 56.8595L227.744 55.5126ZM229.672 60.4761C228.763 60.6304 228.07 60.6831 227.593 60.6339C226.315 60.4691 225.746 59.76 225.888 58.5066C225.861 58.355 225.939 58.0626 226.122 57.6294C226.78 56.0599 227.948 54.8709 229.625 54.0625C230.769 53.4692 231.453 53.366 231.678 53.753C231.747 53.8484 231.65 54.0397 231.389 54.327C231.179 54.6085 230.804 54.9861 230.264 55.4597C229.285 56.3952 228.406 57.0103 227.626 57.3047C227.193 57.5083 226.944 57.7169 226.878 57.9306C226.584 58.3248 226.593 58.8136 226.905 59.397C227.036 59.8461 227.714 60.0014 228.939 59.863C231.462 59.4229 234.413 58.3158 237.793 56.5416L240.129 55.1947L242.465 53.8478C242.753 53.7121 242.936 53.7171 243.014 53.863C243.074 53.9078 243.016 54.0175 242.839 54.1922C242.746 54.2543 242.653 54.3164 242.56 54.3784L242.357 54.556C241.655 54.9963 241.066 55.3464 240.592 55.6063C240.169 55.8604 239.695 56.1202 239.17 56.3858C238.696 56.6457 238.247 56.9027 237.824 57.1568C235.09 58.7549 232.373 59.8613 229.672 60.4761ZM227.707 56.4448L228.432 56.1309C228.576 56.063 228.715 55.9699 228.85 55.8515C229.772 55.1802 230.337 54.7037 230.548 54.4222C230.539 54.3716 230.39 54.4142 230.102 54.5499C229.856 54.6293 229.619 54.7592 229.391 54.9397C229.145 55.0191 228.798 55.2645 228.351 55.676C227.955 56.0817 227.74 56.338 227.707 56.4448ZM253.491 57.7823C252.429 57.954 251.659 58.0153 251.182 57.9661C249.589 57.7854 248.879 56.8604 249.05 55.1911C249.08 54.7752 249.045 54.5731 248.943 54.5846C248.934 54.5341 248.811 54.5738 248.573 54.7037C248.024 55.1267 247.1 55.489 245.801 55.7906C245.393 55.8368 245.073 55.7956 244.842 55.667C244.611 55.5385 244.538 55.4179 244.622 55.3053L243.784 55.864C243.607 56.0387 243.405 56.2163 243.177 56.3967C242.036 57.2991 241.346 57.6607 241.106 57.4816C240.926 57.3473 240.898 57.0411 241.021 56.5632C241.345 55.7531 242.012 54.6724 243.02 53.321C243.113 53.2589 243.241 53.2445 243.403 53.2777C243.616 53.3052 243.727 53.3442 243.736 53.3947L243.776 53.6221C243.923 53.8633 243.61 54.4401 242.835 55.3527L242.583 55.6905C242.643 55.7353 242.719 55.7266 242.812 55.6646L242.952 55.5714L243.231 55.3852L243.357 55.2163L244.384 54.4042L244.712 54.0576C245.109 53.6519 245.457 53.561 245.757 53.7849C245.877 53.8744 245.912 54.0766 245.864 54.3914C245.756 54.6614 245.783 54.813 245.945 54.8463C246.158 54.8737 246.845 54.6413 248.007 54.1491C249.159 53.6063 249.777 53.2786 249.861 53.166C250.266 52.8108 250.64 52.717 250.982 52.8846C251.222 53.0637 251.211 53.2969 250.95 53.5842C250.368 54.1141 250.093 54.7638 250.126 55.5335C250.174 56.0952 250.296 56.4938 250.494 56.7292C250.83 57.1552 251.585 57.3019 252.758 57.1692C254.975 56.7638 257.918 55.6061 261.585 53.6962L262.526 53.2805L264.862 51.9336L265.155 51.8231L265.852 51.3575C265.903 51.3518 265.975 51.3179 266.068 51.2558C266.161 51.1937 266.233 51.1598 266.284 51.154L266.514 51.128C266.694 51.2624 266.763 51.3577 266.721 51.414C266.73 51.4645 266.616 51.5548 266.379 51.6847L266.176 51.8623C264.865 52.6808 263.354 53.5478 261.643 54.463C258.909 56.0611 256.192 57.1676 253.491 57.7823ZM268.543 54.3787C268.288 54.4076 268.061 54.3043 267.863 54.0689C267.614 53.8393 267.514 53.567 267.562 53.2523C267.517 52.9995 267.549 52.7382 267.657 52.4682L267.792 51.9115C267.783 51.861 267.686 51.8978 267.5 52.0219C267.365 52.1403 267.187 52.315 266.968 52.546C266.74 52.7265 266.538 52.9041 266.361 53.0788C265.433 54.0086 264.663 54.5081 264.051 54.5773C263.592 54.6293 263.336 54.5036 263.282 54.2003C263.255 54.0487 263.393 53.8011 263.696 53.4575C264.48 52.5955 265.518 51.7047 266.812 50.785C267.412 50.3563 267.784 50.1079 267.928 50.0401C268.123 49.9665 268.26 50.0026 268.338 50.1485C268.355 50.2495 268.492 50.2857 268.747 50.2568C268.951 50.2337 269.088 50.2699 269.157 50.3652C269.268 50.4042 269.29 50.5305 269.224 50.7442C269.149 50.9074 269.095 51.0424 269.062 51.1493C269.029 51.2561 268.949 51.394 268.823 51.5629C268.295 52.3961 268.207 53.0762 268.561 53.6033C268.579 53.7044 268.665 53.7463 268.818 53.729C269.022 53.7059 269.196 53.6604 269.34 53.5926L269.632 53.4822C270.515 53.1762 272.581 52.066 275.831 50.1517L275.97 50.0586L276.2 50.0326L276.29 50.0998C276.35 50.1446 276.389 50.2175 276.407 50.3186C276.416 50.3691 276.399 50.4226 276.357 50.4789L272.346 52.9432L269.69 54.2489L269.461 54.2749C269.164 54.36 268.858 54.3947 268.543 54.3787ZM264.083 53.8777L264.515 53.6742C265.539 52.9913 266.155 52.5091 266.365 52.2276C266.534 52.0023 266.85 51.7345 267.315 51.4241C267.603 51.2884 267.739 51.17 267.721 51.0689C267.694 50.9173 267.406 51.053 266.856 51.476C265.824 52.1083 265.035 52.7905 264.488 53.5226L264.083 53.8777ZM319.039 69.1621L318.449 68.9194L318.454 68.0682C318.428 67.04 318.733 66.4126 319.369 66.186C319.555 66.0619 319.789 66.0612 320.071 66.184C320.311 66.3631 320.357 66.7703 320.21 67.4056C320.144 67.6193 320.217 67.7399 320.43 67.7674C320.583 67.7501 320.889 67.7155 321.348 67.6635C321.969 67.6449 322.696 67.4854 323.527 67.1852L325.269 66.4468C326.337 66.0167 327.422 65.5331 328.523 64.9961L329.387 64.589L330.162 64.1147L331.292 63.4456C331.487 63.372 332.142 62.9627 333.259 62.2177C333.538 62.0315 333.792 61.8482 334.02 61.6677C334.248 61.4872 334.434 61.3631 334.578 61.2952L334.794 61.1934C334.845 61.1877 335.192 60.9422 335.834 60.4572C336.476 59.9721 336.827 59.7519 336.887 59.7967C336.938 59.7909 337.064 59.622 337.266 59.2899L337.909 58.521L338.594 57.9796C338.702 57.7096 338.909 57.5573 339.215 57.5227C339.41 57.4491 339.634 57.2433 339.886 56.9055C340.096 56.6239 340.278 56.4745 340.431 56.4572C340.584 56.4399 340.744 56.3186 340.912 56.0934L342.101 54.8762C342.185 54.7636 342.29 54.6228 342.416 54.4539C342.593 54.2792 342.724 54.1355 342.808 54.0229L342.857 53.8626C342.848 53.8121 343.009 53.6908 343.339 53.4988C343.585 53.4194 344.104 52.974 344.897 52.1626C346.137 50.9397 347.474 49.68 348.908 48.3835C349.128 48.1525 349.393 47.8904 349.705 47.5974C350.017 47.3043 350.262 47.0704 350.439 46.8957C350.616 46.721 350.726 46.6055 350.768 46.5492L351.034 46.2871C351.085 46.2813 351.245 46.1601 351.515 45.9233L352.996 44.5957L356.679 41.1631C356.889 40.8816 357.046 40.735 357.148 40.7235C357.301 40.7062 357.503 40.5286 357.755 40.1908L358.957 39.0494C359.591 38.5138 360.08 38.046 360.425 37.6461L361.551 36.5134C361.449 36.5249 361.3 36.5675 361.105 36.6411C360.952 36.6584 360.702 36.7126 360.354 36.8035C360.005 36.8944 359.708 36.9796 359.462 37.0589L356.699 37.7582C354.067 38.4682 352.307 39.1055 351.419 39.67C350.513 40.1334 349.942 40.1463 349.709 39.7087L349.641 39.3297C349.725 39.217 350.357 38.9651 351.536 38.574C352.707 38.1323 353.491 37.8631 353.89 37.7664L355.367 37.2901C355.799 37.0866 356.618 36.865 357.824 36.6255C360.363 35.9775 361.679 35.6225 361.772 35.5604L362.231 35.5085C362.504 35.5807 362.843 35.4392 363.248 35.0841L364.374 33.9514C364.929 33.2699 365.229 33.0555 365.274 33.3082C365.292 33.4093 364.951 33.8345 364.252 34.5839C364 34.9217 363.976 35.0791 364.18 35.0561C364.264 34.9434 364.943 34.815 366.219 34.6708L370.971 33.7466C371.116 33.6788 373.528 30.4156 378.208 23.9573C378.964 22.9437 379.334 22.3863 379.316 22.2853L379.379 22.2008C379.481 22.1893 379.805 21.8175 380.351 21.0854C381.654 19.3398 383.08 17.5545 384.629 15.7295C386.799 13.0093 387.29 12.2578 386.102 13.4749L382.81 16.4765C382.48 16.6685 382.303 16.8432 382.279 17.0006C382.228 17.0064 382.161 17.0656 382.077 17.1782C382.035 17.2345 381.972 17.319 381.887 17.4316C381.803 17.5442 381.715 17.6316 381.622 17.6936L381.014 18.2264C380.831 18.6596 380.421 18.9895 379.785 19.2161C379.641 19.2839 379.578 19.3684 379.596 19.4695L379.407 19.7229C378.873 19.938 378.337 20.4368 377.799 21.2194C377.52 21.4056 377.355 21.5016 377.304 21.5074C377.16 21.5752 377.097 21.6597 377.115 21.7608C377.031 21.8734 376.917 21.9636 376.773 22.0315C376.731 22.0878 376.621 22.2033 376.444 22.378C376.309 22.4964 376.2 22.6119 376.116 22.7245C375.863 23.0624 375.661 23.2399 375.508 23.2572C375.406 23.2688 375.322 23.3814 375.256 23.5951L375.003 23.933C374.952 23.9387 374.375 24.4939 373.27 25.5984L372.271 26.5621C372.229 26.6184 372.077 26.7902 371.816 27.0776C371.597 27.3086 371.45 27.5057 371.375 27.6688C370.978 28.0745 370.729 28.2832 370.627 28.2947C370.474 28.312 370.221 28.4953 369.866 28.8447C369.53 29.2952 369.159 29.6981 368.754 30.0532C368.307 30.4647 368.097 30.7463 368.124 30.8979C368.142 30.999 368.1 31.0553 367.998 31.0668C367.947 31.0726 367.525 31.4812 366.733 32.2926C366.564 32.5178 366.429 32.6362 366.327 32.6478C366.225 32.6593 366.081 32.7271 365.895 32.8513C365.634 33.1386 365.481 33.1559 365.436 32.9032C365.427 32.8527 365.642 32.5964 366.08 32.1344L366.94 31.2638C367.066 31.0948 367.155 31.0075 367.206 31.0017C367.257 30.9959 367.417 30.8747 367.687 30.6379C368.504 29.6691 368.989 29.176 369.142 29.1587C369.244 29.1472 369.29 29.1161 369.281 29.0656C369.593 28.7725 369.901 28.4541 370.204 28.1105L372.001 26.3606L372.455 25.8452L373.252 25.059L374.378 23.9264L374.986 23.3936L375.467 23.0298C376.056 22.2415 376.958 21.3145 378.173 20.249L378.817 19.4802C378.859 19.4239 379.02 19.3026 379.299 19.1164L379.844 18.6681L381.537 16.7752L382.878 15.5408C383.545 14.8983 383.869 14.5265 383.851 14.4254C383.935 14.3128 384.007 14.2789 384.067 14.3237C384.118 14.3179 384.139 14.2897 384.13 14.2392C384.112 14.1381 384.154 14.0818 384.256 14.0703C384.307 14.0645 384.426 13.9995 384.612 13.8754L385.067 13.3599L385.751 12.8185L388.155 10.5359C388.737 10.006 389.239 9.45955 389.659 8.89644L390.33 8.27922C390.414 8.16661 390.531 7.94713 390.681 7.6208C390.696 7.41287 390.788 7.19628 390.956 6.97104C391.166 6.68949 391.442 6.63249 391.784 6.80005C392.102 7.125 392.178 7.5546 392.013 8.08886C391.947 8.30257 391.666 8.77255 391.171 9.49882C390.717 10.1688 390.33 10.625 390.009 10.8676C389.832 11.0423 388.771 12.245 386.826 14.4757L384.237 17.4753L383.278 18.6664C381.939 20.2099 379.653 23.3041 376.419 27.949L373.267 32.1723L372.475 33.4219L372.551 33.4133C372.653 33.4017 372.73 33.3931 372.781 33.3873C372.883 33.3758 373.01 33.3614 373.163 33.3441C373.316 33.3267 373.444 33.3123 373.546 33.3008L377.588 32.7664C379.967 32.3942 381.331 32.1626 381.679 32.0717C382.078 31.975 383.233 31.7412 385.145 31.3704C386.156 31.2045 386.802 31.1829 387.084 31.3057C387.699 31.5455 387.711 31.9051 387.12 32.3844L386.103 32.8088C385.755 32.8997 385.46 32.8556 385.221 32.6765C384.99 32.548 384.368 32.5666 383.357 32.7326C380.57 33.1509 378.186 33.4979 376.206 33.7734C374.522 33.9637 373.333 34.1498 372.636 34.3317L371.732 34.5113L370.926 35.6852L369.854 37.1211L369.012 38.5311L367.602 40.7012L365.112 44.695L363.036 47.9459L361.351 50.7658C361.183 50.991 360.975 51.4271 360.725 52.074C360.518 52.6645 360.423 53.0104 360.441 53.1114C360.459 53.2125 360.44 53.3952 360.383 53.6594C360.316 53.8731 360.258 53.9829 360.207 53.9887L359.797 53.8803C359.533 53.8586 359.379 53.7214 359.334 53.4687C359.208 52.7611 359.44 52.0131 360.028 51.2248L360.492 50.3216C360.726 49.8827 360.89 49.6322 360.983 49.5701L361.712 48.4049C361.829 48.1854 362.031 47.8533 362.316 47.4086L362.73 46.6657C362.772 46.6094 363.49 45.5229 364.883 43.4062L365.486 42.4099L368.04 38.3316L369.413 36.3976L370.395 34.8945L369.693 34.8966L367.87 35.1801L365.219 35.6345C363.86 35.8914 363.024 36.1663 362.712 36.4594C362.544 36.6847 362.274 36.9214 361.902 37.1698L358.106 40.8471C358.013 40.9092 357.89 40.9489 357.737 40.9662C357.626 40.9272 357.461 41.0232 357.242 41.2542C357.065 41.4289 356.985 41.5668 357.003 41.6679C357.048 41.9206 356.635 42.3797 355.765 43.0453L351.943 46.571L343.744 54.4584L342.933 55.1688L341.668 56.3946L337.985 59.8272C337.454 60.3513 336.744 60.8955 335.856 61.46C335.442 61.7646 334.965 62.1537 334.424 62.6273C334.07 62.9767 332.594 63.8913 329.995 65.371C327.438 66.7944 325.909 67.5602 325.408 67.6685C325.153 67.6973 324.788 67.8417 324.314 68.1015C321.967 69.2434 320.209 69.5969 319.039 69.1621ZM388.161 37.4481C388.545 37.5594 388.428 37.7789 387.81 38.1066C387.759 38.1123 387.687 38.1463 387.594 38.2083C387.026 38.5303 386.624 38.7562 386.387 38.8861L385.969 39.1655L385.194 39.6397L384.204 40.2157C382.577 41.0184 381.298 41.5756 380.364 41.8873L378.798 42.2965C377.898 42.5014 377.212 42.45 376.741 42.1424C376.399 41.9748 376.221 41.5568 376.206 40.8882L376.292 40.4918L376.405 40.2471C375.435 40.3567 374.748 40.5891 374.343 40.9442L373.514 42.43L373.451 42.5145L372.943 42.7267C372.79 42.744 372.679 42.705 372.61 42.6097C372.481 42.4696 372.458 42.3432 372.542 42.2306L372.502 42.0032C372.88 41.4964 373.143 40.9253 373.29 40.29L374.006 39.0489C374.349 38.34 374.679 38.148 374.997 38.4729C375.186 38.6578 375.23 38.9105 375.131 39.231L374.78 39.8895L376.652 39.4457L376.729 39.437L377.346 38.5166C378.015 38.1831 378.423 38.137 378.57 38.3781C378.648 38.524 378.531 38.7435 378.219 39.0365C377.342 39.9606 377.025 40.6667 377.268 41.1548C377.451 41.5981 377.946 41.7484 378.753 41.6055C379.551 41.4121 380.87 40.9279 382.71 40.1527C383.388 39.8698 384.485 39.3075 386 38.4659C387.33 37.7484 388.05 37.4091 388.161 37.4481ZM391.927 37.2543C392.035 36.9843 391.915 36.8947 391.567 36.9857C390.574 37.2527 389.42 38.0792 388.105 39.4652C388.072 39.5721 388.009 39.6566 387.916 39.7186L387.853 39.8031L387.263 40.8752L387.2 40.9597L386.691 41.1719C386.538 41.1892 386.427 41.1502 386.358 41.0548C386.229 40.9148 386.207 40.7884 386.291 40.6758L386.25 40.4483C386.628 39.9416 386.891 39.3705 387.038 38.7351L387.453 37.9923C387.795 37.2833 388.125 37.0913 388.443 37.4162C388.632 37.6011 388.677 37.8538 388.578 38.1744L388.515 38.2588L389.541 37.4467C391.291 36.1661 392.373 35.8118 392.787 36.3837C393.036 36.6133 393.11 36.8884 393.011 37.209C392.963 37.5238 392.786 37.6985 392.48 37.7331C392.225 37.7619 392.063 37.7287 391.994 37.6334C391.865 37.4933 391.843 37.3669 391.927 37.2543ZM405.875 35.3676C406.163 35.2319 406.346 35.237 406.424 35.3828C406.484 35.4276 406.425 35.5373 406.248 35.712C406.155 35.7741 406.062 35.8362 405.969 35.8983L405.766 36.0758C405.064 36.5162 404.476 36.8662 404.002 37.1261C403.578 37.3802 403.104 37.64 402.579 37.9057C402.105 38.1655 401.656 38.4225 401.233 38.6766C398.499 40.2747 395.782 41.3811 393.081 41.9959C392.019 42.1676 391.25 42.2288 390.772 42.1797C389.443 42.0206 388.865 41.1065 389.036 39.4372C389.1 38.9145 389.409 38.7506 389.964 38.9457C390.237 39.0179 390.336 39.1356 390.261 39.2988C390.098 40.1421 390.065 40.6872 390.161 40.9341C390.293 41.3832 391.022 41.5328 392.348 41.3828C394.871 40.9427 397.823 39.8356 401.202 38.0614L403.538 36.7145L405.875 35.3676ZM407.802 40.3311C406.893 40.4855 406.2 40.5381 405.723 40.4889C404.445 40.3241 403.877 39.615 404.018 38.3616C403.991 38.21 404.069 37.9176 404.252 37.4844C404.91 35.9149 406.078 34.7259 407.755 33.9175C408.899 33.3242 409.583 33.221 409.808 33.6081C409.877 33.7034 409.781 33.8947 409.519 34.182C409.309 34.4636 408.934 34.8411 408.394 35.3147C407.415 36.2502 406.536 36.8653 405.756 37.1597C405.324 37.3633 405.075 37.5719 405.008 37.7856C404.714 38.1798 404.723 38.6686 405.035 39.252C405.167 39.7011 405.845 39.8564 407.069 39.718C409.592 39.2779 412.544 38.1708 415.923 36.3966L418.259 35.0497L420.595 33.7028C420.883 33.5671 421.066 33.5722 421.144 33.718C421.204 33.7628 421.146 33.8725 420.969 34.0472C420.876 34.1093 420.783 34.1714 420.69 34.2335L420.487 34.411C419.785 34.8514 419.197 35.2014 418.722 35.4613C418.299 35.7154 417.825 35.9752 417.3 36.2409C416.826 36.5007 416.377 36.7577 415.954 37.0118C413.22 38.6099 410.503 39.7163 407.802 40.3311ZM405.837 36.2998L406.562 35.9859C406.706 35.918 406.845 35.8249 406.98 35.7065C407.902 35.0352 408.468 34.5587 408.678 34.2772C408.669 34.2266 408.52 34.2692 408.232 34.4049C407.986 34.4843 407.749 34.6142 407.521 34.7947C407.275 34.8741 406.928 35.1195 406.481 35.531C406.085 35.9367 405.87 36.193 405.837 36.2998ZM431.621 37.6373C430.559 37.809 429.79 37.8703 429.313 37.8211C427.719 37.6404 427.009 36.7154 427.18 35.0461C427.211 34.6303 427.175 34.4281 427.073 34.4396C427.064 34.3891 426.941 34.4288 426.704 34.5587C426.154 34.9817 425.23 35.344 423.931 35.6456C423.523 35.6918 423.203 35.6506 422.972 35.522C422.741 35.3935 422.668 35.2729 422.752 35.1603L421.915 35.719C421.737 35.8937 421.535 36.0713 421.307 36.2517C420.166 37.1541 419.476 37.5157 419.236 37.3366C419.056 37.2023 419.028 36.8962 419.151 36.4182C419.475 35.6082 420.142 34.5274 421.151 33.176C421.244 33.1139 421.371 33.0995 421.533 33.1327C421.746 33.1602 421.857 33.1992 421.866 33.2497L421.907 33.4772C422.053 33.7183 421.74 34.2952 420.965 35.2077L420.713 35.5455C420.773 35.5903 420.85 35.5816 420.943 35.5196L421.082 35.4264L421.361 35.2402L421.487 35.0713L422.514 34.2592L422.842 33.9127C423.239 33.507 423.587 33.416 423.887 33.6399C424.007 33.7294 424.043 33.9316 423.994 34.2464C423.886 34.5164 423.913 34.668 424.075 34.7013C424.288 34.7287 424.975 34.4964 426.137 34.0041C427.289 33.4613 427.907 33.1336 427.991 33.021C428.397 32.6658 428.77 32.572 429.112 32.7396C429.352 32.9187 429.341 33.1519 429.08 33.4392C428.498 33.9691 428.223 34.6188 428.256 35.3885C428.304 35.9502 428.427 36.3488 428.624 36.5842C428.96 37.0102 429.715 37.1569 430.888 37.0242C433.105 36.6188 436.048 35.4611 439.715 33.5512L440.656 33.1355L442.992 31.7886L443.285 31.6782L443.982 31.2126C444.033 31.2068 444.105 31.1729 444.199 31.1108C444.292 31.0487 444.364 31.0148 444.415 31.009L444.644 30.9831C444.824 31.1174 444.893 31.2127 444.851 31.269C444.86 31.3195 444.746 31.4098 444.509 31.5397L444.306 31.7173C442.995 32.5359 441.484 33.4028 439.773 34.318C437.039 35.9161 434.322 37.0226 431.621 37.6373ZM446.673 34.2337C446.418 34.2626 446.191 34.1593 445.993 33.9239C445.745 33.6943 445.644 33.4221 445.692 33.1073C445.647 32.8546 445.679 32.5932 445.787 32.3232L445.922 31.7665C445.913 31.716 445.816 31.7528 445.63 31.877C445.495 31.9953 445.318 32.17 445.099 32.4011C444.87 32.5815 444.668 32.7591 444.491 32.9338C443.563 33.8636 442.793 34.3631 442.181 34.4324C441.722 34.4843 441.466 34.3586 441.412 34.0554C441.385 33.9037 441.523 33.6561 441.826 33.3125C442.61 32.4505 443.648 31.5597 444.942 30.6401C445.542 30.2113 445.914 29.963 446.058 29.8951C446.253 29.8215 446.39 29.8576 446.468 30.0035C446.486 30.1046 446.622 30.1407 446.877 30.1118C447.081 30.0888 447.218 30.1249 447.287 30.2202C447.398 30.2592 447.42 30.3856 447.354 30.5993C447.279 30.7624 447.225 30.8974 447.192 31.0043C447.159 31.1111 447.079 31.249 446.953 31.418C446.425 32.2511 446.337 32.9312 446.691 33.4583C446.709 33.5594 446.795 33.6013 446.948 33.584C447.152 33.5609 447.326 33.5154 447.47 33.4476L447.762 33.3372C448.645 33.0312 450.711 31.921 453.961 30.0067L454.101 29.9136L454.33 29.8877L454.42 29.9548C454.48 29.9996 454.519 30.0725 454.537 30.1736C454.546 30.2241 454.529 30.2776 454.487 30.3339L450.476 32.7982L447.821 34.1039L447.591 34.1299C447.294 34.2151 446.988 34.2497 446.673 34.2337ZM442.213 33.7327L442.645 33.5292C443.669 32.8463 444.285 32.3641 444.496 32.0826C444.664 31.8573 444.98 31.5895 445.446 31.2791C445.734 31.1434 445.869 31.025 445.851 30.9239C445.824 30.7723 445.536 30.908 444.986 31.331C443.954 31.9634 443.165 32.6455 442.618 33.3776L442.213 33.7327Z" fill="#1A3A2B"/>
</svg>
